<?xml version="1.0" encoding="utf-8"?>
<!-- Generator: Adobe Illustrator 22.0.1, SVG Export Plug-In . SVG Version: 6.00 Build 0)  -->
<svg version="1.1" id="Layer_1" xmlns="http://www.w3.org/2000/svg" xmlns:xlink="http://www.w3.org/1999/xlink" x="0px" y="0px"
	 viewBox="0 0 570.1 319.3" style="enable-background:new 0 0 570.1 319.3;" xml:space="preserve">
<style type="text/css">
	.st0{fill:none;stroke:#000000;stroke-width:10;stroke-miterlimit:10;}
	.st1{fill:#231F20;}
	.st2{fill:#FFFFFF;}
</style>
<g id="stars_2_">
	<polygon id="star4" points="322.6,0 327.2,14.4 342.3,14.4 330.1,23.3 334.8,37.7 322.6,28.8 310.3,37.7 315,23.3 302.8,14.4 
		317.9,14.4 	"/>
	<polygon id="star3" points="397.6,0 402.3,14.4 417.4,14.4 405.2,23.3 409.8,37.7 397.6,28.8 385.4,37.7 390,23.3 377.8,14.4 
		392.9,14.4 	"/>
	<polygon id="star2" points="247.5,0 252.2,14.4 267.3,14.4 255.1,23.3 259.7,37.7 247.5,28.8 235.3,37.7 239.9,23.3 227.7,14.4 
		242.8,14.4 	"/>
	<polygon id="star1" points="172.5,0 177.1,14.4 192.2,14.4 180,23.3 184.7,37.7 172.5,28.8 160.2,37.7 164.9,23.3 152.7,14.4 
		167.8,14.4 	"/>
</g>
<g id="Circles_1_">
	<g>
		<circle class="st0" cx="285.2" cy="250.8" r="63.5"/>
		<circle class="st0" cx="285.2" cy="250.8" r="47.6"/>
		<circle class="st0" cx="285.2" cy="250.8" r="31.8"/>
		<circle class="st0" cx="285.2" cy="250.8" r="15.9"/>
	</g>
	<g>
	</g>
</g>
<g>
	<path id="wings_1_" class="st1" d="M517.8,85.2c39.2-12.6,49.2-51.6,47-59.5C545.6,32.1,459.2,71.9,354,89.8h-23.1L285,187.5v0.1
		L239.2,90H216C110.8,72,24.4,32.2,5.3,25.8c-2.2,7.9,7.8,46.9,47,59.5c37.5,12.1,120.1,20.4,163.3,17.1l0,9.4
		C120,117.6,43.2,92.7,25.8,90.6c-0.2,8.2,30.6,44.6,65.7,48.4c32.7,3.5,97.8-9.7,124-17.6l0,9.6c-75.1,24.7-142.3,16.5-157.3,18.2
		c1.8,7.5,35.7,34.1,65.6,30.4c25.4-3.1,69.3-24.1,91.7-37.1l0,11.7c-53.4,34.4-93,45.1-119.2,39.5c3.2,6.1,39.6,24.4,63.2,15.7
		c15.7-5.8,38.9-22.4,56-38.1l0,28.9c5.9-9.7,13.9-18.2,23.6-24.9v-29.6l12,25.5l33.9,72.1l33.9-72.2l12-25.5v29.6
		c9.7,6.7,17.7,15.2,23.6,24.9l0-28.9c17.2,15.7,40.3,32.4,56,38.1c23.6,8.7,60.1-9.7,63.2-15.7c-26.2,5.5-65.8-5.1-119.2-39.5
		l0-11.7c22.4,13,66.3,34,91.7,37.1c29.9,3.7,63.8-22.9,65.6-30.4c-15-1.7-82.2,6.5-157.3-18.2l0-9.6c26.2,7.9,91.4,21.1,124,17.6
		c35.1-3.8,65.9-40.2,65.7-48.4c-17.4,2.1-94.2,27-189.7,21.2l0-9.4C397.7,105.6,480.3,97.3,517.8,85.2z"/>
	<path id="wings_x5F_outline_1_" class="st2" d="M564.8,25.7c2.2,7.9-7.8,46.9-47,59.5C486,95.5,421.6,103,376.4,103
		c-8,0-15.4-0.2-21.9-0.7l0,9.4c9.9,0.6,19.6,0.9,29.1,0.9c81.7,0,145-20.2,160.7-22.1c0.2,8.2-30.6,44.6-65.7,48.4
		c-3.7,0.4-7.9,0.6-12.3,0.6c-34.7,0-88.5-11.2-111.7-18.2l0,9.6c48.8,16.1,94.3,18.2,124.3,18.2c11,0,19.9-0.3,26.1-0.3
		c2.9,0,5.2,0.1,6.9,0.2c-1.6,7-31.5,30.7-59.8,30.7c-1.9,0-3.9-0.1-5.8-0.3c-25.4-3.1-69.3-24.1-91.7-37.1l0,11.7
		c44.7,28.8,79.7,40.9,105.2,40.9c5,0,9.7-0.5,14-1.4c-2.6,5-27.2,18-49.1,18c-5,0-9.8-0.7-14.2-2.3c-15.7-5.8-38.9-22.4-56-38.1
		l0,28.9c-5.9-9.7-13.9-18.2-23.6-24.9v-29.6l-12,25.5L285,243.3l-33.9-72.1l-12-25.5v29.6c-9.7,6.7-17.7,15.2-23.6,24.9l0-28.9
		c-17.2,15.7-40.3,32.4-56,38.1c-4.4,1.6-9.2,2.3-14.2,2.3c-21.8,0-46.5-13.1-49.1-18c4.3,0.9,9,1.4,14,1.4
		c25.6,0,60.6-12.2,105.2-40.9l0-11.7c-22.4,13-66.3,34-91.7,37.1c-1.9,0.2-3.9,0.3-5.8,0.3c-28.3,0-58.1-23.7-59.8-30.7
		c1.7-0.2,4-0.2,6.9-0.2c6.2,0,15.1,0.3,26.1,0.3c30,0,75.5-2.2,124.3-18.2l0-9.6c-23.2,7-77,18.2-111.7,18.2
		c-4.5,0-8.6-0.2-12.3-0.6c-35.1-3.8-65.9-40.2-65.7-48.4c15.6,1.9,78.9,22.1,160.7,22.1c9.5,0,19.2-0.3,29.1-0.9l0-9.4
		c-6.5,0.5-13.9,0.7-21.9,0.7c-45.2,0-109.6-7.6-141.4-17.8C13.1,72.7,3,33.8,5.3,25.8C24.4,32.2,110.8,72,216,90h23.1l45.8,97.7
		v-0.1l45.9-97.7H354C459.2,71.9,545.6,32.1,564.8,25.7 M568.2,19.3l-5,1.7c-3.7,1.2-9.5,3.5-17.5,6.7
		c-34.8,13.8-107,42.6-192.1,57.2h-22.7h-3.2l-1.3,2.9L285,175.8l-41.3-88l-1.3-2.9h-3.2h-22.7c-85-14.5-157.3-43.3-192.1-57.2
		c-8-3.2-13.8-5.5-17.5-6.7l-5-1.7l-1.4,5c-1.6,5.6,0.8,18.7,8.4,31.9c6.6,11.4,19.2,26.5,41.8,33.8c3.5,1.1,7.4,2.2,11.7,3.3
		c-6.5-1.4-12.3-2.7-17.3-3.9c-8.6-2-14.8-3.4-18.7-3.9L21,85l-0.1,5.5c-0.2,7.4,10.9,20.6,21.3,29.8c9,7.9,27.2,21.4,48.9,23.8
		c0.9,0.1,1.8,0.2,2.8,0.3c-0.8,0-1.7,0-2.5,0c-6.2,0-11.7-0.1-16.6-0.2c-3.7-0.1-6.8-0.1-9.5-0.1c-3.4,0-5.7,0.1-7.4,0.3l-5.6,0.6
		l1.3,5.5c1.4,6.2,12.2,15,22.2,21.1c8.3,5,24.8,13.5,42.5,13.5c2.2,0,4.3-0.1,6.4-0.4c23.8-2.9,62.4-20.6,86.1-33.5l0,0.4
		c-39.8,25.3-74.4,38.7-100.2,38.7c-4.6,0-9-0.4-13-1.3L87,186.6l4.9,9.4c4.1,7.8,31.5,20.7,53.5,20.7c5.9,0,11.2-0.9,15.9-2.6
		c14.4-5.3,33.8-18.8,49.3-31.8l0,17.9l0,17.8l9.3-15.2c5.7-9.3,13.1-17.2,22.2-23.4l2.2-1.5v-2.6v-7.1l2.4,5.2l33.9,72.1l4.5,9.6
		l4.5-9.6l33.9-72.2l2.4-5.2v7.1v2.6l2.2,1.5c9.1,6.2,16.5,14.1,22.2,23.4l9.3,15.2l0-17.8l0-17.9c15.5,13,34.9,26.5,49.3,31.8
		c4.7,1.7,10,2.6,15.9,2.6c22,0,49.4-12.9,53.5-20.7l4.9-9.4l-10.3,2.2c-4,0.8-8.4,1.3-13,1.3c-25.8,0-60.4-13.4-100.2-38.7l0-0.4
		c23.7,12.9,62.3,30.6,86.1,33.5c2.1,0.3,4.2,0.4,6.4,0.4c17.7,0,34.2-8.4,42.5-13.5c10-6.1,20.7-15,22.2-21.1l1.3-5.5l-5.6-0.6
		c-1.7-0.2-4-0.3-7.4-0.3c-2.7,0-5.9,0.1-9.5,0.1c-4.9,0.1-10.4,0.2-16.6,0.2c-0.8,0-1.7,0-2.5,0c1-0.1,1.9-0.2,2.8-0.3
		c21.7-2.3,39.9-15.9,48.9-23.8c10.4-9.1,21.5-22.3,21.3-29.8l-0.1-5.5l-5.5,0.7c-3.9,0.5-10.1,1.9-18.7,3.9
		c-5,1.2-10.8,2.5-17.3,3.9c4.3-1.1,8.2-2.2,11.7-3.3c22.6-7.3,35.2-22.4,41.8-33.8c7.6-13.1,10-26.2,8.4-31.9L568.2,19.3
		L568.2,19.3z M414.7,106.6c13-0.9,26.3-2.2,39.1-3.8C441.6,104.4,428.5,105.7,414.7,106.6L414.7,106.6z M155.4,106.7
		c-13.8-0.8-27-2.2-39.2-3.8C129,104.5,142.3,105.8,155.4,106.7L155.4,106.7z M426.1,141.3c-17.9-2.1-34.8-5.2-51.1-9.5
		C389.7,135.2,408,138.8,426.1,141.3L426.1,141.3z M144,141.4c18.1-2.5,36.4-6.1,51.1-9.5C178.8,136.2,161.8,139.3,144,141.4
		L144,141.4z"/>
</g>
</svg>
