<svg id="Layer_1" xmlns="http://www.w3.org/2000/svg" version="1.1" viewBox="0 0 165 80" width="100%" height="100%" preserveAspectRatio="none"><defs><style> .cls-1 { fill: #fff; stroke-width: 0px; } </style></defs><path id="logo" class="cls-1" d="M143.7,22.4c-.3,0-1.3.1-2.4.2-29.8,2.7-63.6,10.2-92.9,20.5l-2,.7h19.8c18.8,0,19.8,0,19.9,0,.7-.5,2.5-1.9,3.4-2.5,10.6-7,26.4-13,44.7-16.9,3-.6,7.6-1.5,9.5-1.8.4,0,.6-.1.7-.1,0,0,0,0-.7,0ZM144.8,22.8c-13.8,2.8-25.3,6.5-35.3,11.4-5.9,2.9-11.4,6.4-14.5,9.3l-.4.3h39.1l-.6-.4c-.7-.5-1.7-1.5-2.1-2-1-1.2-1.4-2.4-1.4-3.7s.2-1.8.7-2.9c1-1.9,2.9-4.1,5.7-6.2,2.5-1.9,6.2-4,9.9-5.7,1-.5,1.2-.6,1-.5-.1,0-1.1.2-2.3.5ZM55.9,47.3c-.6.5-2.2,1.9-3.5,3.1s-2.9,2.6-3.5,3.2c-.6.5-1.2,1.1-1.2,1.2-.2.3-.4.8-.3,1.2.1.7.6,1.2,1.7,1.5.4.1.8.1,7.7.1h7.4l1.3-1.2,1.4-1.2h-7.2s-7.2,0-7.2,0l4.6-4.1c2.5-2.3,4.7-4.2,4.8-4.4l.2-.2h-5.2l-1,1ZM67.3,47.1c-.5.4-1.1,1-1.3,1.2l-.5.5h5.1s5.1,0,5.1,0l-3.7,3.3c-2,1.8-4.2,3.8-4.8,4.3-.6.6-1.2,1-1.2,1,0,0,1.2,0,2.7,0h2.7l1-.9c.6-.5,2.1-1.8,3.4-3s3-2.7,3.9-3.4l1.5-1.3h3.9c2.1,0,3.9,0,3.9,0s-.5.5-1.2,1.1c-.7.6-2.4,2.1-3.8,3.4s-3,2.7-3.6,3.1c-.6.5-1,.9-1,.9s1.3,0,2.9,0h2.9l.8-.7c.5-.4,1.4-1.2,2.1-1.8.7-.6,1.3-1.2,1.6-1.3l.4-.3h5.2c5,0,5.2,0,5.4.1.3.1.4.3.3.6,0,.4-.3.6-1.3,1.6-1.2,1.1-2.2,2-2.2,2.1s1.4,0,3,0h3l.8-.7c1.2-1.1,1.9-1.8,2.1-2.1.4-.7.4-1.5,0-2h-.1c0-.1.8-.4.8-.4,2.1-.7,3.8-1.7,4.8-2.7.6-.6.8-1.1.8-1.6s-.4-1.3-1.5-1.7h-.3c0-.1-21.5-.1-21.5-.1h-21.5l-.8.6ZM106.1,48.6c.1,0,.2.2.2.2,0,.1,0,.2,0,.4-.2.5-1,.8-1.9.9-.2,0-2.6,0-5.8,0h-5.4l.7-.6c.4-.4.8-.7,1-.8l.3-.2h5.4c5.1,0,5.4,0,5.6.1ZM44.2,46.5c-.7.1-1.3.2-1.9.5-.8.3-24.4,10.4-24.4,10.5,0,0,1.4,0,3.7,0h3.8l3.2-1.4,3.2-1.4h9.3l-.4,1.1c-.2.6-.5,1.2-.6,1.3,0,.1-.1.3-.1.4s.8,0,2.5,0h2.5l.6-1.5c.3-.8.9-2.2,1.2-3,1.6-3.8,1.9-4.8,2-5.2,0-.5,0-.7-.3-1-.4-.3-.6-.4-2.2-.4-.9,0-1.7,0-2.1.1ZM43.4,50.5c-.2.6-.5,1.2-.5,1.2,0,.1-.2.1-2.3.1h-2.3l.6-.3c3.4-1.5,4.8-2.2,4.9-2.2s-.2.5-.4,1.1ZM130.8,46.5c-.6,0-1.2.2-1.7.4-.4.1-24.6,10.5-24.7,10.6,0,0,1.4,0,3.7,0h3.7l3.2-1.4,3.2-1.4h9.3l-.4.9c-.2.5-.5,1.1-.6,1.4-.1.2-.2.5-.2.5s1.1,0,2.5,0h2.5l.7-1.9c.4-1,1.1-2.7,1.5-3.6,1.2-3,1.6-3.9,1.6-4.3,0-.5,0-.7-.3-1-.4-.3-.6-.4-2.2-.4s-1.7,0-2,0ZM130,50.7l-.5,1.2h-4.5.3c.2-.2,1.4-.8,2.8-1.4s2.5-1.1,2.5-1.1c0,0-.2.5-.5,1.2Z"/></svg>