<svg id="Layer_1" xmlns="http://www.w3.org/2000/svg" version="1.1" viewBox="0 0 165 26.1" width="100%" height="100%" preserveAspectRatio="none"><defs><style> .cls-1 { fill: #fff; stroke-width: 0px; } </style></defs><path class="cls-1" d="M33.7,4.4h8.3l3.5,17.4h-6l-.6-3.2h-6.7l-1.4,3.2h-6l9-17.4ZM37.4,7.9l-3.7,7.3h4.8l-1.2-7.3h0Z"/><polygon class="cls-1" points="49.6 4.4 55.3 4.4 53.4 17.5 61.9 17.5 61.3 21.7 47 21.7 49.6 4.4"/><polygon class="cls-1" points="104 4.4 111.6 4.4 113.1 21.7 107.3 21.7 106.5 9.5 106.4 9.5 101.2 21.7 94.4 21.7 93 9.2 92.9 9.2 88.7 21.7 83.1 21.7 89.5 4.4 96.9 4.4 98.4 17.4 98.4 17.4 104 4.4"/><polygon class="cls-1" points="153.9 4.4 159.2 4.4 156.6 21.7 148.5 21.7 143.3 9.3 143.2 9.3 141.5 21.7 136 21.7 138.7 4.4 146.5 4.4 152 17.1 152 17.1 153.9 4.4"/><path class="cls-1" d="M65.2,20.8c-1.6-.9-2.3-2.5-1.8-5.2l.9-5c.5-2.7,1.8-4.3,3.8-5.2,1.9-.9,4.5-1.1,7.3-1.1s5.3.2,6.9,1.1c1.5.9,2.3,2.5,1.8,5.2l-.9,5c-.5,2.7-1.8,4.3-3.7,5.2s-4.5,1.1-7.3,1.1-5.3-.2-6.9-1.1M77.5,15.2l.8-4.2c.5-2.8-.5-3-3.5-3s-4.2.2-4.7,3l-.8,4.2c-.6,2.8.5,3,3.5,3s4.2-.3,4.7-3"/><path class="cls-1" d="M116.6,20.8c-1.6-.9-2.3-2.5-1.8-5.2l.9-5c.5-2.7,1.8-4.3,3.8-5.2,1.9-.9,4.5-1.1,7.3-1.1s5.3.2,6.9,1.1c1.5.9,2.3,2.5,1.8,5.2l-.9,5c-.5,2.7-1.8,4.3-3.7,5.2s-4.5,1.1-7.3,1.1-5.3-.2-6.9-1.1M128.9,15.2l.8-4.2c.5-2.8-.5-3-3.5-3s-4.2.2-4.7,3l-.8,4.2c-.6,2.8.5,3,3.5,3s4.2-.3,4.7-3"/><path class="cls-1" d="M23.1,4.2c2.9,0,3.7,1.1,3.3,3.4l-.6,2.8h-5.4l.3-1.5c.2-1,0-1.2-1.5-1.3-.4,0-1.3,0-1.9,0-1,0-2.1,0-2.7,0-.9.1-1.2.3-1.2.7-.1.6,0,.9,1.3,1.5l8.4,4.1c1.7.8,1.9,1.3,1.6,2.6l-.3,1.8c-.6,2.6-1.4,3.6-4.8,3.6h-9.7c-3.2,0-4.5-1.1-4-3.6l.5-2.5h5.2l-.3,1.8c-.1.5,0,.8.8.9.6.1,1.3.1,2.8.1s2,0,2.6,0c.9,0,1.1-.2,1.2-.8.1-.6,0-.8-1.8-1.7l-6.3-3.1c-2.5-1.2-2.9-2.1-2.6-3.8l.3-1.6c.6-2.8,1.5-3.4,5.1-3.4h9.7Z"/></svg>