<svg width="100" height="57" viewBox="0 0 100 57" xmlns="http://www.w3.org/2000/svg" xmlns:xlink="http://www.w3.org/1999/xlink"><title>Page 1 Copy</title><defs><path id="a" d="M99.977 56.872V0H0v56.872h99.977z"/></defs><g fill="none" fill-rule="evenodd"><mask id="b" fill="#fff"><use xlink:href="#a"/></mask><path d="M60.975 16.446c0-6.02 2.523-9.401 9.104-10.801 6.582-1.401 9.105.906 9.105 6.926v5.921l-7.224 1.536v-6.86c0-1.299-.64-2.013-1.88-1.705-1.07.266-1.88 1.086-1.88 3.076v21.064c0 1.858.597 2.388 1.88 2.09.933-.217 1.88-.904 1.88-3.059v-5.14l7.224-1.537v4.838c0 6.02-2.523 9.316-9.105 10.717-6.58 1.4-9.104-.822-9.104-6.842V16.446zm23.779-13.21L99.977 0v6.3l-7.999 1.701v7.772l7.274-1.546v6.314l-7.274 1.546v9.689l8-1.7v6.344l-15.224 3.235V3.236zM18.209 17.38v28.37c0 6.02-2.524 9.317-9.104 10.717C2.524 57.867 0 55.646 0 49.625V44.79l7.225-1.536v5.691c0 1.298.64 2.012 1.88 1.705 1.07-.266 1.88-1.086 1.88-3.077V18.916l7.224-1.536zm24.053-5.112v28.427c0 6.02-2.523 9.254-9.104 10.655-6.581 1.4-9.105-.76-9.105-6.78V16.138l7.224-1.535v29.223c0 1.299.641 2.013 1.881 1.705 1.07-.265 1.88-1.086 1.88-3.076V13.803l7.224-1.535zm5.853 35.175v-36.42l7.223-1.535v36.42l-7.223 1.535z" fill="#000" mask="url(#b)"/></g></svg>