<svg version="1.1" id="Layer_1" xmlns="http://www.w3.org/2000/svg" xmlns:xlink="http://www.w3.org/1999/xlink" x="0px" y="0px" viewBox="0 0 20 20" style="enable-background:new 0 0 20 20;" xml:space="preserve" width="100%" height="100%" preserveAspectRatio="none"><style type="text/css"> .st0{clip-path:url(#SVGID_00000024683736537104844960000004416268248398855852_);} .st1{fill:#FFFFFF;} </style><g><defs><rect id="SVGID_1_" width="20" height="20"/></defs><clipPath id="SVGID_00000017495628824227963300000012361297991740085162_"><use xlink:href="#SVGID_1_" style="overflow:visible;"/></clipPath><g style="clip-path:url(#SVGID_00000017495628824227963300000012361297991740085162_);"><path class="st1" d="M15.1,11.9c-1.4,0-2.5,1.1-2.5,2.5c0,1.4,1.1,2.5,2.5,2.5c1.4,0,2.5-1.1,2.5-2.5C17.6,13,16.5,11.9,15.1,11.9 z M15.1,15.7c-0.7,0-1.3-0.6-1.3-1.3c0-0.7,0.6-1.3,1.3-1.3c0.7,0,1.3,0.6,1.3,1.3C16.4,15.1,15.8,15.7,15.1,15.7z"/><path class="st1" d="M6.5,11.9C5.1,11.9,4,13,4,14.4c0,1.4,1.1,2.5,2.5,2.5c1.4,0,2.5-1.1,2.5-2.5C9,13,7.9,11.9,6.5,11.9z M6.5,15.7c-0.7,0-1.3-0.6-1.3-1.3c0-0.7,0.6-1.3,1.3-1.3c0.7,0,1.3,0.6,1.3,1.3C7.8,15.1,7.2,15.7,6.5,15.7z"/><path class="st1" d="M16.8,4.7c-0.1-0.2-0.3-0.3-0.6-0.3h-3.3v1.3h2.9L17.6,9l1.1-0.6L16.8,4.7z"/><path class="st1" d="M13.2,13.8H8.4v1.3h4.8V13.8z"/><path class="st1" d="M4.6,13.8H2.4c-0.3,0-0.6,0.3-0.6,0.6c0,0.3,0.3,0.6,0.6,0.6h2.2c0.3,0,0.6-0.3,0.6-0.6S4.9,13.8,4.6,13.8z"/><path class="st1" d="M19.9,9.9l-1.2-1.6c-0.1-0.2-0.3-0.2-0.5-0.2h-4.6V3.7c0-0.3-0.3-0.6-0.6-0.6H2.4c-0.3,0-0.6,0.3-0.6,0.6 c0,0.3,0.3,0.6,0.6,0.6h9.9v4.4c0,0.3,0.3,0.6,0.6,0.6h4.9l0.9,1.2v3.3H17c-0.3,0-0.6,0.3-0.6,0.6c0,0.3,0.3,0.6,0.6,0.6h2.4 c0.3,0,0.6-0.3,0.6-0.6v-4.1C20,10.2,20,10.1,19.9,9.9z"/><path class="st1" d="M4.6,10.6H1.7c-0.3,0-0.6,0.3-0.6,0.6s0.3,0.6,0.6,0.6h2.9c0.3,0,0.6-0.3,0.6-0.6C5.2,10.9,4.9,10.6,4.6,10.6 z"/><path class="st1" d="M6,8.1H0.6C0.3,8.1,0,8.4,0,8.8c0,0.3,0.3,0.6,0.6,0.6H6c0.3,0,0.6-0.3,0.6-0.6S6.4,8.1,6,8.1z"/><path class="st1" d="M7,5.7H1.7C1.3,5.7,1,5.9,1,6.3c0,0.3,0.3,0.6,0.6,0.6H7c0.3,0,0.6-0.3,0.6-0.6C7.7,5.9,7.4,5.7,7,5.7z"/></g></g></svg>