<svg width="710" height="121" viewBox="0 0 710 121" xmlns="http://www.w3.org/2000/svg"><g fill="#fff" stroke="#000"><path d="M299.207 11.054l-19.1 23.92-.602-2.35-9.098 11.75-2.65-9.099 18.135-24.22zm-25.486 0V50.82H261.43V11.054zm10.785 12.593l15.665 27.173h-13.918l-10.845-20.365zM309.33 18.043q-3.615 0-5.212-1.265-1.597-1.265-1.597-4.097 0-2.892 1.597-4.157 1.597-1.266 5.212-1.266 3.615 0 5.211 1.266 1.597 1.265 1.597 4.157 0 2.832-1.597 4.097-1.596 1.265-5.211 1.265zm6.085 2.651v31.331q0 4.157-1.386 6.748t-4.157 3.796q-2.772 1.205-6.99 1.205-2.65 0-4.76-.482-2.108-.482-3.795-1.386l1.567-7.41q.602.421 1.476.662.873.241 1.958.241 1.807 0 2.862-.994 1.054-.994 1.054-3.464V20.694zM336.744 51.423q-5.182 0-8.947-1.838-3.766-1.838-5.785-5.332-2.018-3.495-2.018-8.496 0-5 2.049-8.495 2.048-3.495 5.723-5.332 3.676-1.838 8.496-1.838 4.94 0 8.405 1.838 3.464 1.837 5.302 5.09 1.838 3.254 1.838 7.592 0 1.025-.09 2.049-.091 1.024-.212 1.747h-23.678v-5.302h18.376l-5.784 2.23q0-3.435-.934-5.212-.934-1.778-3.223-1.778-1.567 0-2.621.723t-1.567 2.41q-.512 1.687-.512 4.459 0 2.772.633 4.368.633 1.597 1.777 2.2 1.145.602 2.892.602 1.928 0 3.013-.783 1.084-.784 1.566-2.17l9.761 2.893q-.723 2.771-2.922 4.639-2.2 1.868-5.212 2.802-3.012.934-6.326.934zM356.265 50.82V20.694h10.966l.542 11.629-1.265-1.326q.482-3.494 1.988-5.934 1.507-2.44 3.886-3.706 2.38-1.265 5.513-1.265 3.073 0 5.272 1.175 2.2 1.175 3.405 3.494 1.205 2.32 1.205 5.694V50.82h-12.171V33.588q0-2.53-.813-3.464-.814-.934-2.32-.934-1.145 0-2.079.572-.934.573-1.446 1.838-.512 1.265-.512 3.314V50.82zM408.202 10.753v28.499q0 2.109.934 3.012.934.904 2.801.904 1.326 0 2.29-.24.964-.242 1.807-.784l.784 7.11q-1.446 1.024-3.917 1.596-2.47.573-4.82.573-3.856 0-6.537-1.025-2.681-1.024-4.097-3.253-1.416-2.23-1.416-5.965V14.127zm8.194 9.941v8.375H391.09v-8.375zM435.676 51.423q-5.181 0-8.947-1.838-3.766-1.838-5.784-5.332-2.018-3.495-2.018-8.496 0-5 2.048-8.495 2.049-3.495 5.724-5.332 3.675-1.838 8.495-1.838 4.941 0 8.405 1.838 3.465 1.837 5.303 5.09 1.837 3.254 1.837 7.592 0 1.025-.09 2.049t-.211 1.747h-23.679v-5.302h18.377l-5.784 2.23q0-3.435-.934-5.212-.934-1.778-3.224-1.778-1.566 0-2.62.723-1.055.723-1.567 2.41-.512 1.687-.512 4.459 0 2.772.632 4.368.633 1.597 1.778 2.2 1.145.602 2.892.602 1.928 0 3.012-.783 1.085-.784 1.567-2.17l9.76 2.893q-.722 2.771-2.922 4.639-2.199 1.868-5.211 2.802-3.013.934-6.327.934z" stroke-width=".06025"/></g><g fill="#fff" stroke="#000"><path d="M142.886 80.944l-15.003 16.268-2.169.362-8.134 9.52-.18-12.05 12.23-14.1zm-23.318-12.411v42.537h-12.17V68.533zM129.871 89.5l13.677 21.57h-13.375l-7.893-14.4zM165.48 80.944h12.592L167.83 111.07h-14.882l-10.243-30.126h12.713l5 22.113zM196.63 92.09q0-1.686-.874-2.68-.874-.994-2.56-.994-1.567 0-2.682.843-1.114.844-1.416 3.193l-10.303-1.867q.603-4.7 4.399-7.472 3.796-2.771 10.845-2.771 4.82 0 8.104 1.356 3.283 1.355 4.91 3.946 1.627 2.59 1.627 6.206v10.122q0 2.41 2.23 2.41.903 0 1.385-.24l-.603 6.566q-1.988.965-4.94.965-2.59 0-4.58-.814-1.987-.813-3.132-2.38-1.145-1.566-1.145-4.097v-.482l1.205-.18q0 2.41-1.476 4.217-1.476 1.807-3.856 2.771-2.38.965-5.272.965-3.133 0-5.363-.965-2.229-.964-3.404-2.771-1.175-1.808-1.175-4.398 0-3.314 2.019-5.423 2.018-2.109 6.115-2.892l10.906-2.29-.06 5.122-4.46 1.024q-1.505.301-2.198.994-.693.693-.693 1.898 0 1.145.783 1.777.783.633 1.928.633.783 0 1.446-.24.663-.242 1.175-.724t.813-1.205q.302-.723.302-1.747zM227.358 68.533v31.33q0 1.928.602 2.772.603.843 2.11.843.722 0 1.295-.09.572-.09 1.235-.331l-.663 6.868q-1.085.783-3.043 1.266-1.958.482-3.886.482-5.242 0-7.531-2.32-2.29-2.32-2.29-7.742V68.533zM241.457 78.293q-3.615 0-5.212-1.265-1.597-1.265-1.597-4.097 0-2.892 1.597-4.157 1.597-1.266 5.212-1.266 3.615 0 5.211 1.266 1.597 1.265 1.597 4.157 0 2.832-1.597 4.097-1.596 1.265-5.211 1.265zm6.085 2.651v30.126h-12.17V80.944zM268.088 71.003v28.499q0 2.109.934 3.012.933.904 2.801.904 1.326 0 2.29-.24.964-.242 1.807-.784l.784 7.11q-1.446 1.024-3.917 1.596-2.47.573-4.82.573-3.856 0-6.537-1.025-2.681-1.024-4.097-3.253-1.416-2.23-1.416-5.965V74.377zm8.194 9.941v8.375h-25.306v-8.375zM295.562 111.673q-5.181 0-8.947-1.838-3.766-1.838-5.784-5.332-2.019-3.495-2.019-8.496 0-5 2.049-8.495 2.048-3.495 5.724-5.332 3.675-1.838 8.495-1.838 4.94 0 8.405 1.838 3.465 1.837 5.302 5.09 1.838 3.254 1.838 7.592 0 1.025-.09 2.049t-.211 1.747h-23.679v-5.302h18.377l-5.784 2.23q0-3.435-.934-5.212-.934-1.778-3.224-1.778-1.566 0-2.62.723-1.055.723-1.567 2.41-.512 1.687-.512 4.459 0 2.772.632 4.368.633 1.597 1.778 2.2 1.144.602 2.892.602 1.928 0 3.012-.783 1.085-.784 1.567-2.17l9.76 2.893q-.723 2.771-2.922 4.639-2.199 1.868-5.211 2.802-3.013.934-6.327.934zM329.544 71.003v28.499q0 2.109.934 3.012.934.904 2.801.904 1.326 0 2.29-.24.964-.242 1.808-.784l.783 7.11q-1.446 1.024-3.917 1.596-2.47.573-4.82.573-3.856 0-6.537-1.025-2.681-1.024-4.097-3.253-1.416-2.23-1.416-5.965V74.377zm8.194 9.941v8.375h-25.305v-8.375zM354.91 111.673q-4.459 0-8.436-1.326-3.976-1.326-6.808-3.916l4.88-6.447q1.627 1.627 4.188 2.832 2.56 1.205 5.392 1.205 1.446 0 2.44-.362.995-.361.995-1.265 0-.603-.512-.994-.513-.392-2.14-.693l-3.132-.603q-6.146-1.205-8.707-3.524-2.56-2.32-2.56-6.116 0-2.47 1.536-4.79t4.88-3.826q3.344-1.506 8.646-1.506 4.64 0 8.285 1.235 3.645 1.235 5.814 3.525l-4.76 6.266q-1.626-1.567-4.097-2.47-2.47-.904-4.7-.904-1.144 0-1.927.18-.784.181-1.175.513-.392.331-.392.873 0 .603.693 1.055.693.452 2.56.813l4.82.844q4.76.843 6.93 3.133 2.169 2.29 2.169 5.603 0 2.952-1.567 5.362-1.566 2.41-4.85 3.856-3.284 1.447-8.465 1.447zM373.889 111.07V80.944h10.965l.302 6.206q1.325-3.314 3.976-5.06 2.651-1.748 6.327-1.748 3.374 0 5.754 1.536 2.38 1.537 3.404 4.489.964-1.988 2.44-3.314 1.476-1.325 3.434-2.018 1.959-.693 4.188-.693 3.012 0 5.212 1.175 2.199 1.175 3.404 3.494 1.205 2.32 1.205 5.694v20.365h-12.171V93.718q0-2.41-.783-3.344-.784-.934-2.23-.934-1.205 0-2.138.602-.934.603-1.416 1.898-.482 1.296-.482 3.224v15.906h-12.171V93.718q0-2.41-.783-3.344-.784-.934-2.23-.934-1.144 0-2.078.602-.934.603-1.446 1.898-.513 1.296-.513 3.284v15.846zM445.768 111.673q-5.181 0-8.947-1.838-3.766-1.838-5.784-5.332-2.018-3.495-2.018-8.496 0-5 2.048-8.495 2.049-3.495 5.724-5.332 3.675-1.838 8.495-1.838 4.941 0 8.405 1.838 3.465 1.837 5.303 5.09 1.837 3.254 1.837 7.592 0 1.025-.09 2.049t-.211 1.747h-23.679v-5.302h18.377l-5.784 2.23q0-3.435-.934-5.212-.934-1.778-3.224-1.778-1.566 0-2.62.723-1.055.723-1.567 2.41-.512 1.687-.512 4.459 0 2.772.632 4.368.633 1.597 1.778 2.2 1.145.602 2.892.602 1.928 0 3.013-.783 1.084-.784 1.566-2.17l9.76 2.893q-.722 2.771-2.921 4.639-2.2 1.868-5.212 2.802-3.013.934-6.327.934zM465.29 111.07V80.944h10.905l.362 7.05q1.024-3.555 3.223-5.604 2.2-2.048 5.754-2.048 1.266 0 2.049.21.783.212 1.145.513l-1.085 9.881q-.602-.24-1.566-.422-.965-.18-2.23-.18-1.807 0-3.253.662-1.446.663-2.29 1.959-.843 1.295-.843 3.283v14.822zM527.108 80.944l-15.003 16.268-2.169.362-8.134 9.52-.18-12.05 12.23-14.1zM503.79 68.533v42.537h-12.17V68.533zM514.093 89.5l13.677 21.57h-13.375l-7.893-14.4zM543.857 111.673q-5.181 0-8.947-1.838-3.766-1.838-5.784-5.332-2.018-3.495-2.018-8.496 0-5 2.048-8.495 2.049-3.495 5.724-5.332 3.675-1.838 8.495-1.838 4.941 0 8.405 1.838 3.465 1.837 5.303 5.09 1.837 3.254 1.837 7.592 0 1.025-.09 2.049t-.211 1.747H534.94v-5.302h18.377l-5.784 2.23q0-3.435-.934-5.212-.934-1.778-3.224-1.778-1.566 0-2.62.723-1.055.723-1.567 2.41-.512 1.687-.512 4.459 0 2.772.632 4.368.633 1.597 1.778 2.2 1.145.602 2.892.602 1.928 0 3.012-.783 1.085-.784 1.567-2.17l9.76 2.893q-.722 2.771-2.921 4.639-2.2 1.868-5.212 2.802-3.013.934-6.327.934zM563.379 111.07V80.944h10.905l.362 7.05q1.024-3.555 3.223-5.604 2.2-2.048 5.754-2.048 1.265 0 2.049.21.783.212 1.145.513l-1.085 9.881q-.603-.24-1.567-.422-.964-.18-2.229-.18-1.807 0-3.253.662-1.446.663-2.29 1.959-.843 1.295-.843 3.283v14.822zM602.482 71.304v11.267l-1.326 15.364h-10.062l-1.325-15.364V71.304zm-6.327 29.343q3.013 0 4.73 1.446 1.717 1.446 1.717 3.976 0 2.591-1.717 4.037-1.717 1.446-4.73 1.446-3.072 0-4.79-1.446-1.717-1.446-1.717-4.037 0-2.53 1.717-3.976 1.718-1.446 4.79-1.446z" stroke-width=".06025"/></g></svg>