<svg version="1.1" id="Layer_1" xmlns="http://www.w3.org/2000/svg" xmlns:xlink="http://www.w3.org/1999/xlink" x="0px" y="0px" viewBox="0 0 499 201.3" style="enable-background:new 0 0 499 201.3;" xml:space="preserve" width="100%" height="100%" preserveAspectRatio="none"><style type="text/css"> .st0{fill:#FFFFFF;} .st1{clip-path:url(#SVGID_00000002359507663995388020000014684546483022527909_);fill:#FFFFFF;} .st2{clip-path:url(#SVGID_00000002359507663995388020000014684546483022527909_);fill:#ED8028;} </style><circle class="st0" cx="37.1" cy="99.9" r="29.7"/><polygon class="st0" points="85.3,128.7 85.3,69.7 120.4,69.7 120.4,73.5 89.7,73.5 89.7,97.9 112.5,97.9 112.5,101.6 89.7,101.6 89.7,128.7 "/><g><defs><rect id="SVGID_1_" x="-25.1" width="555.6" height="201.3"/></defs><clipPath id="SVGID_00000085250647013585122350000005068433261754202767_"><use xlink:href="#SVGID_1_" style="overflow:visible;"/></clipPath><path style="clip-path:url(#SVGID_00000085250647013585122350000005068433261754202767_);;" d="M117.6,139.3h2.4 c4,0,5.8-2.3,5.8-6.2V84.8h1.3c2.6,0,3,0.5,3,4.6v43.9c0,5.8-3,9.3-8.9,9.3c-1.4,0-2.5-0.1-3.5-0.3V139.3z M125.1,75.1 c0-1.5,1.3-2.9,2.9-2.9c1.6,0,2.9,1.3,2.9,2.9c0,1.6-1.3,2.9-2.9,2.9C126.3,78,125.1,76.7,125.1,75.1" fill="#FFFFFF" data-color-group="0"/><path style="clip-path:url(#SVGID_00000085250647013585122350000005068433261754202767_);;" d="M160.1,125.6 c7,0,11.3-2.2,13.7-4.6h1.9v3.1c-3.1,2.4-7.9,4.9-15.9,4.9c-13.2,0-20.6-8.5-20.6-22.2c0-13.8,8.3-22.6,19.5-22.6 c10.8,0,18,6.2,18,20.6c0,0.8-0.1,1.9-0.1,2h-33.1C143.4,119.2,149.1,125.6,160.1,125.6 M143.5,103.6h28.9 c-0.3-11.7-5.7-16.2-13.8-16.2C150.4,87.4,144.5,92.8,143.5,103.6" fill="#FFFFFF" data-color-group="0"/><path style="clip-path:url(#SVGID_00000085250647013585122350000005068433261754202767_);;" d="M185.4,128.7v-59h1.5 c2.4,0,2.7,0.5,2.7,4v55H185.4z" fill="#FFFFFF" data-color-group="0"/><path style="clip-path:url(#SVGID_00000085250647013585122350000005068433261754202767_);;" d="M201.9,128.7v-59h1.5 c2.4,0,2.7,0.5,2.7,4v55H201.9z" fill="#FFFFFF" data-color-group="0"/><path style="clip-path:url(#SVGID_00000085250647013585122350000005068433261754202767_);;" d="M215.2,124.9v-3.5h1.7 c2.1,1.9,6,4.3,12.3,4.3c8.1,0,12-3.4,12-9.4c0-5.1-2.9-7.3-11.8-8.7c-8.4-1.3-13.7-4.3-13.7-11.7c0-7.6,6-11.6,14.8-11.6 c6.4,0,10.3,1.7,12.7,3.3V91h-1.7c-2.4-1.9-5.3-3.5-11-3.5c-7.2,0-10.9,2.7-10.9,8c0,5.1,3,7,11.5,8.4c9.2,1.4,14.2,4.2,14.2,12 c0,8.1-5,13.1-15.9,13.1C221.9,129,217.7,126.7,215.2,124.9" fill="#FFFFFF" data-color-group="0"/><path style="clip-path:url(#SVGID_00000085250647013585122350000005068433261754202767_);;" d="M258.5,92.6 c3.5-4,8.9-8.3,16.7-8.3c8.3,0,16.9,5,16.9,21.8c0,17.4-9.8,22.8-18.9,22.8c-7,0-11.3-2.1-14.7-5.1v18.7h-4.2V84.8h1.9 c1.9,0,2.3,0.5,2.3,4.4V92.6z M258.5,96.7v22.9c3.5,3.8,7.6,5.8,13.9,5.8c7.3,0,15.3-3.8,15.3-19c0-15-7.1-18.7-13.2-18.7 C267.5,87.7,262.3,92.2,258.5,96.7" fill="#FFFFFF" data-color-group="0"/><path style="clip-path:url(#SVGID_00000085250647013585122350000005068433261754202767_);;" d="M297.8,106.7 c0-13.8,8.3-22.4,20.4-22.4c12.3,0,20.5,8.6,20.5,22.4c0,13.9-8.2,22.3-20.5,22.3C306,129,297.8,120.6,297.8,106.7 M334.3,106.7 c0-12-6.2-19.1-16.2-19.1c-10,0-16.1,7.2-16.1,19.1c0,12.1,6.2,19.1,16.1,19.1C328.2,125.7,334.3,118.7,334.3,106.7" fill="#FFFFFF" data-color-group="0"/><path style="clip-path:url(#SVGID_00000085250647013585122350000005068433261754202767_);;" d="M350,92.3 c3.4-4,8.2-7.9,14.4-7.9c1.1,0,1.9,0.2,2,0.3v3.5c0,0-1.1-0.1-1.9-0.1c-6.4,0-11,4.1-14.6,8.3v32.4h-4.2V84.8h1.9 c1.9,0,2.3,0.5,2.3,4.8V92.3z" fill="#FFFFFF" data-color-group="0"/><path style="clip-path:url(#SVGID_00000085250647013585122350000005068433261754202767_);;" d="M370.5,84.8h5.8V72.5 h4.2v12.2h11.7V88h-11.7v30.7c0,5.3,2.4,6.9,7.6,6.9h5.1v3c-1.4,0.3-3.9,0.5-6.5,0.5c-6.7,0-10.4-2.9-10.4-9.9V88h-5.8V84.8z" fill="#FFFFFF" data-color-group="0"/><path style="clip-path:url(#SVGID_00000085250647013585122350000005068433261754202767_);;" d="M399.1,125.8 c0-1.8,1.3-3.3,3.2-3.3c1.8,0,3.3,1.5,3.3,3.3c0,1.9-1.5,3.2-3.3,3.2C400.5,129,399.1,127.7,399.1,125.8" fill="#FFFFFF" data-color-group="0"/><path style="clip-path:url(#SVGID_00000085250647013585122350000005068433261754202767_);;" d="M418.7,91.7 c5-4,11.6-7.5,19.3-7.5c6.2,0,11.4,2.5,11.4,11.7v32.7h-4.2V96.5c0-7-3.8-8.7-8.8-8.7c-6.5,0-12.7,3.6-17.7,7.4v33.5h-4.2V84.7h1.9 c1.9,0,2.3,0.5,2.3,4.4V91.7z" fill="#FFFFFF" data-color-group="0"/><path style="clip-path:url(#SVGID_00000085250647013585122350000005068433261754202767_);;" d="M456.1,106.7 c0-13.8,8.3-22.4,20.4-22.4c12.3,0,20.5,8.6,20.5,22.4c0,13.9-8.2,22.3-20.5,22.3C464.4,129,456.1,120.6,456.1,106.7 M492.7,106.7 c0-12-6.2-19.1-16.2-19.1c-10,0-16.1,7.2-16.1,19.1c0,12.1,6.2,19.1,16.1,19.1C486.5,125.7,492.7,118.7,492.7,106.7" fill="#FFFFFF" data-color-group="0"/><path style="clip-path:url(#SVGID_00000085250647013585122350000005068433261754202767_);;" d="M37.2,64.6 c-19.3,0-35,15.7-35,35c0,19.3,15.7,35,35,35c19.3,0,35-15.7,35-35C72.2,80.3,56.5,64.6,37.2,64.6 M41.6,104.2 c-8.7,11.9-23.9,13.1-23.9,13.1c11.9-4.5,13.8-12.3,16.3-19c0,0,1.9-0.1,2.8,0c0.9,0,1.9,0,1.9,0s-0.6-0.9-1.6-1.3 c-1.1-0.4-2.5-0.3-2.5-0.3L34,98.3c0,0-1,0-2-0.4c-1-0.4-1.8-1.3-1.8-1.3c0.4,0.1,2.4,0.1,4.4,0.1c1-2.7,2.6-6.3,7.1-9.7 c5.4-4.1,14.6-5.3,14.6-5.3C41.2,89.5,48.3,95,41.6,104.2" fill="#ED8028" data-color-group="1"/></g></svg>