<svg width="710" height="133" viewBox="0 0 710 133" xmlns="http://www.w3.org/2000/svg"><g fill="#fff" stroke="#000"><path d="M49.346 53.83H36.693l-2.23-8.254h-12.11l-2.29 8.254H7.774l13.375-39.766H35.91zM24.402 37.622h8.073l-4.037-14.821zM64.228 11.293v31.33q0 1.928.602 2.772.603.843 2.109.843.723 0 1.295-.09.573-.09 1.236-.331l-.663 6.868q-1.085.783-3.043 1.266-1.958.482-3.886.482-5.242 0-7.532-2.32t-2.29-7.742V11.293zM85.918 13.763v28.499q0 2.109.934 3.012.934.904 2.802.904 1.325 0 2.29-.24.963-.242 1.807-.784l.783 7.11q-1.446 1.024-3.916 1.596-2.47.573-4.82.573-3.856 0-6.538-1.025-2.68-1.024-4.097-3.253-1.416-2.23-1.416-5.965V17.137zm8.194 9.941v8.375H68.807v-8.375zM128.455 13.763v28.499q0 2.109.934 3.012.934.904 2.802.904 1.326 0 2.29-.24.964-.242 1.807-.784l.783 7.11q-1.446 1.024-3.916 1.596-2.47.573-4.82.573-3.856 0-6.537-1.025-2.681-1.024-4.097-3.253-1.416-2.23-1.416-5.965V17.137zm8.195 9.941v8.375h-25.306v-8.375zM146.591 21.053q-3.615 0-5.212-1.265-1.596-1.265-1.596-4.097 0-2.892 1.596-4.157 1.597-1.266 5.212-1.266 3.615 0 5.212 1.266 1.596 1.265 1.596 4.157 0 2.832-1.596 4.097-1.597 1.265-5.212 1.265zm6.085 2.651V53.83h-12.17V23.704zM170.692 11.293v31.33q0 1.928.602 2.772.603.843 2.109.843.723 0 1.295-.09.573-.09 1.235-.331l-.662 6.868q-1.085.783-3.043 1.266-1.958.482-3.886.482-5.242 0-7.532-2.32t-2.29-7.742V11.293zM205.215 54.433q-3.675 0-6.356-1.838t-4.097-5.332q-1.416-3.495-1.416-8.375 0-5.001 1.446-8.526 1.446-3.525 4.187-5.392 2.742-1.868 6.417-1.868 4.278 0 6.688 2.681t3.073 6.839l-1.085 1.506V11.293h12.171V53.83h-10.966l-.723-11.267 1.386 1.386q-.361 3.073-1.777 5.453-1.416 2.38-3.676 3.705-2.259 1.326-5.272 1.326zm4.7-8.677q1.326 0 2.23-.783.903-.783 1.415-2.35.512-1.566.512-3.916 0-2.23-.451-3.766-.452-1.536-1.386-2.32-.934-.783-2.32-.783-1.988 0-3.163 1.537-1.175 1.536-1.175 5.392 0 3.856 1.145 5.423 1.145 1.566 3.193 1.566zM238.233 21.053q-3.615 0-5.212-1.265-1.596-1.265-1.596-4.097 0-2.892 1.596-4.157 1.597-1.266 5.212-1.266 3.615 0 5.212 1.266 1.597 1.265 1.597 4.157 0 2.832-1.597 4.097-1.597 1.265-5.212 1.265zm6.086 2.651V53.83h-12.171V23.704zM250.223 53.83V23.704h10.966l.542 11.629-1.265-1.326q.482-3.494 1.988-5.934t3.886-3.706q2.38-1.265 5.513-1.265 3.073 0 5.272 1.175 2.2 1.175 3.405 3.494 1.205 2.32 1.205 5.694V53.83h-12.171V36.598q0-2.53-.814-3.464-.813-.934-2.32-.934-1.144 0-2.078.572-.934.573-1.446 1.838-.512 1.265-.512 3.314V53.83zM303.666 53.83V23.704h10.966l.542 11.629-1.265-1.326q.482-3.494 1.988-5.934t3.886-3.706q2.38-1.265 5.513-1.265 3.073 0 5.272 1.175 2.2 1.175 3.404 3.494 1.205 2.32 1.205 5.694V53.83h-12.17V36.598q0-2.53-.814-3.464-.813-.934-2.32-.934-1.144 0-2.078.572-.934.573-1.446 1.838-.512 1.265-.512 3.314V53.83zM356.446 54.433q-5.182 0-8.947-1.838-3.766-1.838-5.784-5.332-2.019-3.495-2.019-8.496 0-5 2.049-8.495 2.048-3.495 5.724-5.332 3.675-1.838 8.495-1.838 4.94 0 8.405 1.838 3.465 1.837 5.302 5.09 1.838 3.254 1.838 7.592 0 1.025-.09 2.049t-.211 1.747h-23.68v-5.302h18.377l-5.784 2.23q0-3.435-.934-5.212-.933-1.778-3.223-1.778-1.567 0-2.62.723-1.055.723-1.567 2.41-.513 1.687-.513 4.459 0 2.772.633 4.368.633 1.597 1.777 2.2 1.145.602 2.893.602 1.928 0 3.012-.783 1.085-.784 1.567-2.17l9.76 2.893q-.723 2.771-2.922 4.639-2.199 1.868-5.212 2.802-3.012.934-6.326.934zM389.283 54.433q-4.459 0-8.435-1.326-3.977-1.326-6.809-3.916l4.88-6.447q1.628 1.627 4.188 2.832 2.56 1.205 5.393 1.205 1.446 0 2.44-.362.994-.361.994-1.265 0-.603-.512-.994-.512-.392-2.14-.693l-3.132-.603q-6.146-1.205-8.706-3.524-2.561-2.32-2.561-6.116 0-2.47 1.536-4.79 1.537-2.32 4.88-3.826 3.345-1.506 8.647-1.506 4.639 0 8.284 1.235 3.645 1.235 5.814 3.525l-4.76 6.266q-1.626-1.567-4.096-2.47-2.47-.904-4.7-.904-1.145 0-1.928.18-.783.181-1.175.513-.392.331-.392.873 0 .603.693 1.055.693.452 2.561.813l4.82.844q4.76.843 6.929 3.133 2.169 2.29 2.169 5.603 0 2.952-1.567 5.362-1.566 2.41-4.85 3.856-3.283 1.447-8.465 1.447zM422.903 13.763v28.499q0 2.109.934 3.012.934.904 2.802.904 1.325 0 2.29-.24.963-.242 1.807-.784l.783 7.11q-1.446 1.024-3.916 1.596-2.47.573-4.82.573-3.856 0-6.538-1.025-2.68-1.024-4.097-3.253-1.416-2.23-1.416-5.965V17.137zm8.194 9.941v8.375h-25.305v-8.375zM450.378 54.433q-5.182 0-8.948-1.838-3.765-1.838-5.784-5.332-2.018-3.495-2.018-8.496 0-5 2.048-8.495 2.049-3.495 5.724-5.332 3.676-1.838 8.496-1.838 4.94 0 8.405 1.838 3.464 1.837 5.302 5.09 1.837 3.254 1.837 7.592 0 1.025-.09 2.049t-.21 1.747h-23.68v-5.302h18.377l-5.784 2.23q0-3.435-.934-5.212-.934-1.778-3.223-1.778-1.567 0-2.621.723-1.055.723-1.567 2.41-.512 1.687-.512 4.459 0 2.772.633 4.368.632 1.597 1.777 2.2 1.145.602 2.892.602 1.928 0 3.013-.783 1.084-.784 1.566-2.17l9.761 2.893q-.723 2.771-2.922 4.639-2.2 1.868-5.212 2.802-3.013.934-6.326.934zM498.097 11.293v31.33q0 1.928.602 2.772.603.843 2.109.843.723 0 1.295-.09.573-.09 1.235-.331l-.662 6.868q-1.085.783-3.043 1.266-1.958.482-3.886.482-5.242 0-7.532-2.32t-2.29-7.742V11.293zM521.173 23.102q4.94 0 8.616 1.838 3.675 1.837 5.724 5.332 2.048 3.494 2.048 8.495 0 4.94-2.048 8.465-2.049 3.525-5.724 5.363-3.676 1.838-8.616 1.838-4.82 0-8.526-1.838-3.705-1.838-5.784-5.363-2.078-3.524-2.078-8.465 0-5 2.078-8.495 2.079-3.495 5.784-5.332 3.706-1.838 8.526-1.838zm0 8.375q-1.326 0-2.26.663-.933.662-1.415 2.29-.482 1.626-.482 4.337 0 2.712.482 4.308.482 1.597 1.415 2.29.934.693 2.26.693 1.386 0 2.29-.693.903-.693 1.385-2.29.482-1.596.482-4.308 0-2.711-.482-4.338-.482-1.627-1.386-2.29-.903-.662-2.29-.662zm-15.545 23.739l27.053-32.837h4.037l-27.053 32.837zM542.14 66.483V23.704h11.026l.603 12.171-1.386-1.446q.301-3.314 1.687-5.844 1.386-2.53 3.705-4.007 2.32-1.476 5.393-1.476 3.736 0 6.387 1.838 2.65 1.837 4.067 5.302 1.415 3.464 1.415 8.405 0 4.94-1.446 8.495-1.446 3.555-4.127 5.423-2.681 1.868-6.356 1.868-4.278 0-6.718-2.682-2.44-2.68-3.164-6.718l1.085-1.626v23.076zm16.328-20.787q2.049 0 3.194-1.536 1.144-1.537 1.144-5.393t-1.144-5.422q-1.145-1.567-3.133-1.567-1.266 0-2.23.783-.964.784-1.476 2.32-.512 1.536-.512 3.886 0 2.23.452 3.796.452 1.567 1.416 2.35.964.783 2.29.783zM595.342 54.433q-5.182 0-8.947-1.838-3.766-1.838-5.784-5.332-2.019-3.495-2.019-8.496 0-5 2.049-8.495 2.048-3.495 5.724-5.332 3.675-1.838 8.495-1.838 4.94 0 8.405 1.838 3.465 1.837 5.302 5.09 1.838 3.254 1.838 7.592 0 1.025-.09 2.049t-.211 1.747h-23.68v-5.302h18.378l-5.785 2.23q0-3.435-.933-5.212-.934-1.778-3.224-1.778-1.566 0-2.62.723-1.055.723-1.567 2.41-.513 1.687-.513 4.459 0 2.772.633 4.368.633 1.597 1.778 2.2 1.144.602 2.892.602 1.928 0 3.012-.783 1.085-.784 1.567-2.17l9.76 2.893q-.723 2.771-2.922 4.639-2.199 1.868-5.212 2.802-3.012.934-6.326.934zM629.324 13.763v28.499q0 2.109.934 3.012.934.904 2.801.904 1.326 0 2.29-.24.964-.242 1.807-.784l.784 7.11q-1.446 1.024-3.917 1.596-2.47.573-4.82.573-3.856 0-6.537-1.025-2.681-1.024-4.097-3.253-1.416-2.23-1.416-5.965V17.137zm8.194 9.941v8.375h-25.306v-8.375zM651.315 54.433q-3.072 0-5.332-1.055-2.26-1.054-3.494-3.374-1.235-2.32-1.235-6.055V23.704h12.17v17.413q0 2.29.844 3.254.843.964 2.47.964.844 0 1.567-.332.723-.331 1.235-.994.512-.663.783-1.747.271-1.085.271-2.53V23.703h12.17V53.83H661.86l-.3-6.025q-1.387 3.314-3.977 4.97-2.591 1.658-6.267 1.658zM678.67 53.83V23.704h10.905l.361 7.05q1.025-3.555 3.224-5.604 2.2-2.048 5.754-2.048 1.265 0 2.048.21.784.212 1.145.513l-1.084 9.881q-.603-.24-1.567-.422-.964-.18-2.23-.18-1.807 0-3.253.662-1.446.663-2.29 1.959-.843 1.295-.843 3.283V53.83z" stroke-width=".06025"/></g><g fill="#fff" stroke="#000"><path d="M139.602 77.563v31.33q0 1.928.602 2.772.603.843 2.11.843.722 0 1.295-.09.572-.09 1.235-.331l-.663 6.868q-1.085.783-3.043 1.266-1.958.482-3.886.482-5.242 0-7.531-2.32-2.29-2.32-2.29-7.742V77.563zM179.066 89.974l-9.82 28.318q-1.808 5.423-4.067 8.647-2.26 3.223-5.333 4.669-3.072 1.446-7.47 1.446-2.712 0-4.941-.542-2.23-.543-3.856-1.446l2.289-7.893q1.024.602 2.2.904 1.174.3 3.162.3 1.868 0 2.892-.481 1.025-.482 1.507-1.747l.422-1.145-3.616-8.556-8.796-22.474h13.315l3.615 16.328 1.266 6.688 1.506-6.868 3.735-16.148zM181.657 120.1V89.974h10.966l.542 11.629-1.265-1.326q.482-3.494 1.988-5.934 1.507-2.44 3.886-3.706 2.38-1.265 5.513-1.265 3.073 0 5.272 1.175 2.2 1.175 3.405 3.494 1.205 2.32 1.205 5.694V120.1h-12.171v-17.232q0-2.53-.813-3.464-.814-.934-2.32-.934-1.145 0-2.079.572-.934.573-1.446 1.838-.512 1.265-.512 3.314V120.1zM219.013 120.1V89.974h10.905l.362 7.05q1.024-3.555 3.223-5.604 2.2-2.048 5.754-2.048 1.266 0 2.049.21.783.212 1.145.513l-1.085 9.881q-.602-.24-1.566-.422-.964-.18-2.23-.18-1.807 0-3.253.662-1.446.663-2.29 1.959-.843 1.295-.843 3.283V120.1zM261.731 101.12q0-1.686-.874-2.68-.873-.994-2.56-.994-1.567 0-2.681.843-1.115.844-1.416 3.193l-10.303-1.867q.602-4.7 4.398-7.472 3.796-2.771 10.845-2.771 4.82 0 8.104 1.356 3.284 1.355 4.91 3.946 1.627 2.59 1.627 6.206v10.122q0 2.41 2.23 2.41.903 0 1.385-.24l-.602 6.566q-1.988.965-4.94.965-2.591 0-4.58-.814-1.988-.813-3.133-2.38-1.145-1.566-1.145-4.097v-.482l1.205-.18q0 2.41-1.476 4.217-1.476 1.807-3.856 2.771-2.38.965-5.272.965-3.133 0-5.362-.965-2.23-.964-3.404-2.771-1.175-1.808-1.175-4.398 0-3.314 2.018-5.423 2.019-2.109 6.116-2.892l10.905-2.29-.06 5.122-4.459 1.024q-1.506.301-2.199.994-.693.693-.693 1.898 0 1.145.784 1.777.783.633 1.928.633.783 0 1.446-.24.662-.242 1.174-.724.513-.482.814-1.205.301-.723.301-1.747zM293.664 120.703q-4.458 0-8.435-1.326-3.976-1.326-6.808-3.916l4.88-6.447q1.627 1.627 4.188 2.832 2.56 1.205 5.392 1.205 1.446 0 2.44-.362.994-.361.994-1.265 0-.603-.512-.994-.512-.392-2.139-.693l-3.133-.603q-6.145-1.205-8.706-3.524-2.56-2.32-2.56-6.116 0-2.47 1.536-4.79t4.88-3.826q3.344-1.506 8.646-1.506 4.64 0 8.285 1.235 3.645 1.235 5.814 3.525l-4.76 6.266q-1.627-1.567-4.097-2.47-2.47-.904-4.7-.904-1.144 0-1.928.18-.783.181-1.175.513-.391.331-.391.873 0 .603.693 1.055.692.452 2.56.813l4.82.844q4.76.843 6.93 3.133 2.168 2.29 2.168 5.603 0 2.952-1.566 5.362-1.567 2.41-4.85 3.856-3.284 1.447-8.466 1.447zM348.131 89.974l-15.002 16.268-2.17.362-8.133 9.52-.18-12.05 12.23-14.1zm-23.317-12.411V120.1h-12.17V77.563zm10.303 20.967l13.677 21.57h-13.376l-7.893-14.4zM365.905 80.033v28.499q0 2.109.934 3.012.934.904 2.802.904 1.326 0 2.29-.24.964-.242 1.807-.784l.783 7.11q-1.446 1.024-3.916 1.596-2.47.573-4.82.573-3.856 0-6.537-1.025-2.681-1.024-4.097-3.253-1.416-2.23-1.416-5.965V83.407zm8.195 9.941v8.375h-25.306v-8.375zM406.153 77.563v31.33q0 1.928.603 2.772.602.843 2.109.843.723 0 1.295-.09t1.235-.331l-.663 6.868q-1.084.783-3.042 1.266-1.958.482-3.887.482-5.241 0-7.53-2.32-2.29-2.32-2.29-7.742V77.563zM429.591 120.703q-5.182 0-8.947-1.838-3.766-1.838-5.784-5.332-2.019-3.495-2.019-8.496 0-5 2.049-8.495 2.048-3.495 5.724-5.332 3.675-1.838 8.495-1.838 4.94 0 8.405 1.838 3.464 1.837 5.302 5.09 1.838 3.254 1.838 7.592 0 1.025-.09 2.049-.091 1.024-.211 1.747h-23.68v-5.302h18.377l-5.784 2.23q0-3.435-.934-5.212-.933-1.778-3.223-1.778-1.567 0-2.62.723-1.055.723-1.567 2.41-.513 1.687-.513 4.459 0 2.772.633 4.368.633 1.597 1.777 2.2 1.145.602 2.893.602 1.928 0 3.012-.783 1.085-.784 1.567-2.17l9.76 2.893q-.723 2.771-2.922 4.639-2.2 1.868-5.212 2.802-3.012.934-6.326.934zM467.55 89.974h12.592L469.899 120.1h-14.882l-10.243-30.126h12.713l5.001 22.113zM497.434 120.703q-5.182 0-8.947-1.838-3.766-1.838-5.785-5.332-2.018-3.495-2.018-8.496 0-5 2.049-8.495 2.048-3.495 5.723-5.332 3.676-1.838 8.496-1.838 4.94 0 8.405 1.838 3.464 1.837 5.302 5.09 1.838 3.254 1.838 7.592 0 1.025-.09 2.049-.091 1.024-.212 1.747h-23.678v-5.302h18.376l-5.784 2.23q0-3.435-.934-5.212-.934-1.778-3.223-1.778-1.567 0-2.621.723t-1.567 2.41q-.512 1.687-.512 4.459 0 2.772.633 4.368.633 1.597 1.777 2.2 1.145.602 2.892.602 1.928 0 3.013-.783 1.084-.784 1.566-2.17l9.761 2.893q-.723 2.771-2.922 4.639-2.2 1.868-5.212 2.802-3.012.934-6.326.934zM516.955 120.1V89.974h10.906l.361 7.05q1.025-3.555 3.224-5.604 2.199-2.048 5.754-2.048 1.265 0 2.048.21.783.212 1.145.513l-1.085 9.881q-.602-.24-1.566-.422-.964-.18-2.23-.18-1.807 0-3.253.662-1.446.663-2.29 1.959-.843 1.295-.843 3.283V120.1zM557.565 80.033v28.499q0 2.109.933 3.012.934.904 2.802.904 1.326 0 2.29-.24.964-.242 1.807-.784l.783 7.11q-1.446 1.024-3.916 1.596-2.47.573-4.82.573-3.856 0-6.537-1.025-2.681-1.024-4.097-3.253-1.416-2.23-1.416-5.965V83.407zm8.194 9.941v8.375h-25.306v-8.375zM582.388 80.334v11.267l-1.325 15.364H571l-1.326-15.364V80.334zm-6.326 29.343q3.012 0 4.73 1.446 1.717 1.446 1.717 3.976 0 2.591-1.718 4.037-1.717 1.446-4.73 1.446-3.072 0-4.79-1.446-1.716-1.446-1.716-4.037 0-2.53 1.717-3.976 1.717-1.446 4.79-1.446z" stroke-width=".06025"/></g></svg>