<svg version="1.1" id="Layer_1" xmlns="http://www.w3.org/2000/svg" xmlns:xlink="http://www.w3.org/1999/xlink" x="0px" y="0px" viewBox="0 0 457 75.5" style="enable-background:new 0 0 457 75.5;" xml:space="preserve" width="100%" height="100%" preserveAspectRatio="none"><style type="text/css"> .st0{fill:#FFFFFF;} </style><g><g><polygon class="st0" points="78.2,61 78.2,7.1 110.4,7.1 110.4,10.5 82.3,10.5 82.3,32.9 103.1,32.9 103.1,36.3 82.3,36.3 82.3,61 "/><path class="st0" d="M107.7,70.8h2.2c3.7,0,5.3-2.1,5.3-5.7V20.9h1.2c2.4,0,2.7,0.5,2.7,4.2v40.2c0,5.3-2.7,8.5-8.1,8.5 c-1.3,0-2.3-0.1-3.2-0.3V70.8z M114.6,12.1c0-1.4,1.2-2.6,2.6-2.6c1.5,0,2.6,1.2,2.6,2.6c0,1.5-1.2,2.6-2.6,2.6 C115.8,14.7,114.6,13.5,114.6,12.1"/><path class="st0" d="M146.6,58.2c6.4,0,10.3-2,12.5-4.2h1.7v2.9c-2.9,2.2-7.2,4.5-14.6,4.5c-12.1,0-18.8-7.8-18.8-20.3 c0-12.6,7.6-20.7,17.8-20.7c9.9,0,16.5,5.7,16.5,18.8c0,0.8-0.1,1.7-0.1,1.9h-30.3C131.3,52.3,136.6,58.2,146.6,58.2 M131.4,38.1 h26.5c-0.2-10.7-5.2-14.8-12.6-14.8C137.8,23.3,132.3,28.3,131.4,38.1"/><path class="st0" d="M169.7,61v-54h1.4c2.2,0,2.5,0.5,2.5,3.7V61H169.7z"/><path class="st0" d="M184.9,61v-54h1.4c2.2,0,2.5,0.5,2.5,3.7V61H184.9z"/><path class="st0" d="M197,57.6v-3.2h1.5c1.9,1.8,5.5,3.9,11.3,3.9c7.4,0,11-3.1,11-8.6c0-4.7-2.6-6.6-10.8-7.9 c-7.7-1.2-12.6-3.9-12.6-10.7c0-6.9,5.5-10.6,13.5-10.6c5.9,0,9.4,1.5,11.6,3v3.2H221c-2.2-1.8-4.9-3.2-10-3.2 c-6.6,0-10,2.5-10,7.3c0,4.6,2.7,6.4,10.5,7.7c8.4,1.3,13,3.9,13,11c0,7.4-4.6,12-14.6,12C203.1,61.3,199.4,59.3,197,57.6"/><path class="st0" d="M236.7,28c3.2-3.7,8.2-7.6,15.3-7.6c7.6,0,15.4,4.6,15.4,19.9c0,15.9-8.9,20.8-17.3,20.8 c-6.4,0-10.3-1.9-13.4-4.7v17.1h-3.9V20.9h1.8c1.7,0,2.1,0.5,2.1,4V28z M236.7,31.8v20.9c3.2,3.5,6.9,5.3,12.7,5.3 c6.6,0,14-3.5,14-17.4c0-13.7-6.5-17.1-12.1-17.1C244.9,23.6,240.2,27.6,236.7,31.8"/><path class="st0" d="M272.5,40.9c0-12.6,7.6-20.5,18.7-20.5c11.3,0,18.7,7.9,18.7,20.5c0,12.7-7.5,20.4-18.7,20.4 C280.1,61.3,272.5,53.6,272.5,40.9 M306,40.9c0-11-5.6-17.5-14.8-17.5c-9.1,0-14.7,6.6-14.7,17.5c0,11,5.6,17.4,14.7,17.4 C300.4,58.3,306,51.9,306,40.9"/><path class="st0" d="M320.4,27.8c3.1-3.7,7.5-7.2,13.2-7.2c1,0,1.7,0.2,1.9,0.2v3.2c0,0-1-0.1-1.7-0.1c-5.9,0-10.1,3.8-13.3,7.6 V61h-3.9V20.9h1.8c1.7,0,2.1,0.5,2.1,4.4V27.8z"/><path class="st0" d="M339.1,20.9h5.3V9.7h3.9v11.2H359v2.9h-10.7v28.1c0,4.9,2.2,6.3,6.9,6.3h4.6v2.7c-1.2,0.2-3.5,0.5-5.9,0.5 c-6.2,0-9.5-2.6-9.5-9V23.8h-5.3V20.9z"/><path class="st0" d="M365.2,58.4c0-1.6,1.2-3,2.9-3c1.6,0,3,1.4,3,3c0,1.7-1.4,2.9-3,2.9C366.5,61.3,365.2,60.1,365.2,58.4"/><path class="st0" d="M383.1,27.3c4.6-3.6,10.6-6.9,17.7-6.9c5.6,0,10.4,2.3,10.4,10.7V61h-3.9V31.6c0-6.4-3.5-7.9-8-7.9 c-5.9,0-11.6,3.3-16.2,6.8V61h-3.9V20.9h1.8c1.7,0,2.1,0.5,2.1,4V27.3z"/><path class="st0" d="M417.4,40.9c0-12.6,7.6-20.5,18.7-20.5c11.3,0,18.7,7.9,18.7,20.5c0,12.7-7.5,20.4-18.7,20.4 C424.9,61.3,417.4,53.6,417.4,40.9 M450.9,40.9c0-11-5.6-17.5-14.8-17.5c-9.1,0-14.7,6.6-14.7,17.5c0,11,5.6,17.4,14.7,17.4 C445.2,58.3,450.9,51.9,450.9,40.9"/></g><path class="st0" d="M34.2,2.4c-17.7,0-32,14.3-32,32c0,17.7,14.3,32,32,32c17.7,0,32-14.3,32-32C66.3,16.8,51.9,2.4,34.2,2.4 M38.3,38.7c-7.9,10.9-21.8,11.9-21.8,11.9c10.8-4.1,12.6-11.2,14.9-17.4c0,0,1.7-0.1,2.6,0c0.8,0,1.8,0,1.8,0s-0.5-0.9-1.5-1.2 c-1-0.4-2.3-0.3-2.3-0.3l-0.6,1.5c0,0-0.9,0-1.8-0.3c-0.9-0.4-1.7-1.2-1.7-1.2c0.3,0.1,2.2,0.1,4.1,0.1c1-2.5,2.4-5.8,6.5-8.8 c5-3.7,13.4-4.8,13.4-4.8C37.9,25.2,44.4,30.2,38.3,38.7"/></g></svg>