<svg id="Ebene_1" xmlns="http://www.w3.org/2000/svg" version="1.1" viewBox="0 0 468.4 363" width="100%" height="100%" preserveAspectRatio="none"><defs><style> .cls-1 { fill: #fff; stroke-width: 0px; } </style></defs><g><polygon class="cls-1" points="408.9 308.9 400.1 319.2 417.1 319.2 390.1 351.3 408 351.3 435 319.2 449.3 319.2 458 308.9 408.9 308.9"/><polygon class="cls-1" points="381.9 308.9 346.1 351.3 364 351.3 399.8 308.9 381.9 308.9"/><path class="cls-1" d="M185.1,308.9h-16l-35.8,42.5h17.9l26.2-31.1,5.5,31.1h15.4l35.8-42.5h-17.9l-21.6,25.6-3.6-20.6c-.5-2.9-3-5-5.9-5Z"/><polygon class="cls-1" points="138.2 308.9 120.9 329.4 117.2 308.9 102.6 308.9 108.7 343.8 93.5 361.2 111.4 361.2 156.1 308.9 138.2 308.9"/><path class="cls-1" d="M252.7,331l-5.9,7h22.6c-5.9,6.9-11.4,13.3-11.4,13.3h17.9s4.1-5,14.2-17c10.2-12.2,12.9-15.3,14.6-17.7,1.1-1.6,1.3-3.5.5-5.2-.7-1.5-2.4-2.5-4.4-2.5h-46c-4.7,0-9.3,1.9-12.3,5.6l-31.1,36.9h17.9l26.6-31.5c.3-.4.8-.6,1.2-.6h27.1c.3,0,.5.4.3.7-1.3,1.5-3.5,4.1-6.7,7.8h-18.1c-2.8,0-5.4,1.2-7.1,3.3Z"/><path class="cls-1" d="M34.1,351.3h31.4c5.3,0,10.9-2.5,14.9-6.7,4.2-4.4,13.8-16.1,15.4-18.7,1.3-2.2,2.6-4.5,2.6-6.8s-1.1-5.4-3-7.2c-2.1-2-5-3-8.4-3h-40.8l-35.8,42.5h17.9l27-32.1h26.6c.4,0,.8.2.9.6.2.4.1.8-.2,1.3-2.2,3.1-10.4,13.1-13.1,15.9-2.7,2.7-5.8,4.1-9.2,4.1h-10.2c-4.7,0-9.2,2.1-12.3,5.7l-3.8,4.6Z"/><path class="cls-1" d="M319.9,314.6l-30.9,36.8h17.9l11.2-13.3h23l8.7-10.3h-22.9s6.7-7.9,6.7-7.9c.3-.4.8-.6,1.2-.6h29.3l8.8-10.4h-40.6c-4.7,0-9.2,2.1-12.3,5.7Z"/></g><g><path class="cls-1" d="M32.4,1.8C2,1.8-2,26.4,23.6,56.8l66.7,79.1c-2.8-4-4.6-9-4.6-14.4v-51h-15.7c-6.5,0-16.2-5.5-21.7-12l-13-15.5c-12.8-15.2-10.8-27.5,4.4-27.5h57.7c3.3-5.7,11.4-10.7,22.1-13.8H32.4Z"/><path class="cls-1" d="M109.6,96.4l15.9,18.9c4.9,5.3,12,8.4,16.9,8.4h30.6c4.9,0,18.6,6.5,18.6,18v17.5c0,8.6,1.6,11.5,5.4,12.1v-12.1c0,0,0-18.8,0-18.8v-12.8c-.3-3-1.4-5.6-2.9-7.8l-28.1-33.2h-55c-5.3,0-6.1,4.5-1.4,9.8ZM143.2,96.5c.6,7.9,7.1,14.1,15.1,14.1s10.2-2.9,12.9-7.3l4.2,4.8c-5.2,5.7-12.2,9.2-20,9.2-12.1,0-22.4-8.6-27-20.8h14.7Z"/><path class="cls-1" d="M336.2,157.2h-14c-10.4,0-17,6.5-17,17.9v23.7c0,.7,0,1.4,0,2.4,0,13.8-11.2,24.6-25,24.6h-21s-12.5,0-12.5,0c-5.5,0-10-4.5-10-10v-7.2c0-8.2,6.7-14.9,15-14.9h7.6c1.4,0,2.7-.2,3.9-.6h0c4.5-1.8,7.7-6.4,7.7-11.8v-7.2h-73.6v7.2c0,5.4,3.2,10.1,7.7,11.8h0c1.2.5,2.5.7,3.9.7h7.6c8.3,0,15,6.6,15,14.9v7.2c0,5.5-4.5,10-10,10h-33.4c-13.8,0-25-10.9-25-24.7,0-1,0-1.7,0-2.4v-23.7c0-11.5-6.6-17.9-17-17.9h-14s-15.1,0-15.1,0c-4,0-9.5-2.1-14.1-5.8l35.1,41.6,26.8,31.8c10.9,13,30.4,24.4,43.4,24.4h51.8c13,0,32.5-11.4,43.4-24.5l26.8-31.8,35.1-41.6c-4.6,3.7-10,5.8-14.1,5.8h-15.1Z"/><path class="cls-1" d="M436,1.8h-87c10.7,3,18.8,8,22.1,13.7h57.7c15.2,0,17.2,12.3,4.4,27.5l-13,15.5c-5.5,6.5-15.2,12-21.7,12h-15.7v51c0,5.4-1.8,10.4-4.6,14.3l66.7-79.1c25.5-30.4,21.5-55-8.9-55Z"/><path class="cls-1" d="M276.8,159.1v-17.5c0-11.5,13.7-17.9,18.6-17.9h14c0,0,16.6,0,16.6,0,4.9,0,12-3,16.9-8.4l15.9-18.9c4.7-5.3,3.9-9.8-1.4-9.8h-55l-28.1,33.2c-1.5,2.2-2.7,4.8-2.9,7.8v43.7c3.8-.7,5.5-3.5,5.5-12.1ZM297.2,103.3c2.7,4.4,7.4,7.3,12.9,7.3,8,0,14.5-6.2,15.1-14.1h14.7c-4.5,12.2-14.9,20.8-27,20.8s-14.7-3.5-20-9.2l4.2-4.8Z"/></g></svg>