<svg width="251" height="99" viewBox="0 0 251 99" xmlns="http://www.w3.org/2000/svg"><g fill="#fff" stroke="#fff"><path d="M48.558 39.69v4.123h-6.665V60.15h-5.332V43.813h-6.696V39.69zM53.425 42.852q-1.612 0-2.34-.605-.729-.604-.729-1.906 0-1.333.729-1.938.728-.604 2.34-.604 1.581 0 2.325.604.744.605.744 1.938 0 1.302-.744 1.906-.744.605-2.325.605zm2.635 1.798v15.5h-5.27v-15.5zM65.019 38.078V54.88q0 1.023.341 1.457.341.434 1.147.434.465 0 .775-.062t.744-.186l-.341 3.162q-.558.341-1.457.558-.899.217-1.767.217-2.48 0-3.596-1.147t-1.116-3.751V38.078zM88.331 60.46q-1.519 0-2.681-.682-1.163-.682-1.907-1.876-.744-1.193-.961-2.712l.496-.651-.279 5.611H78.38V38.078h5.27v11.439l-.496-.744q.434-1.922 1.767-3.178 1.333-1.255 3.596-1.255 1.798 0 3.209.961 1.41.961 2.2 2.774.791 1.814.791 4.387 0 2.511-.806 4.309t-2.232 2.743q-1.426.946-3.348.946zm-1.829-3.875q1.364 0 2.139-1.008.775-1.007.775-3.177t-.775-3.178q-.775-1.007-2.139-1.007-.899 0-1.534.511-.636.512-.977 1.442-.341.93-.341 2.263 0 1.333.341 2.263.341.93.992 1.41.651.481 1.519.481zM103.056 60.46q-1.581 0-2.775-.543-1.193-.542-1.875-1.751-.682-1.209-.682-3.162V44.65h5.27v9.114q0 1.488.589 2.077t1.674.589q.558 0 1.054-.202.496-.201.868-.62.372-.418.573-1.085.202-.666.202-1.565V44.65h5.27v15.5h-4.712l-.155-2.914q-.744 1.643-2.077 2.433-1.333.791-3.224.791zM123.485 39.721v14.911q0 1.116.543 1.596.542.481 1.503.481.744 0 1.287-.17.542-.171.976-.512l.558 3.255q-.775.558-1.953.868-1.178.31-2.418.31-1.767 0-3.053-.496-1.287-.496-1.984-1.581-.698-1.085-.729-2.883V41.178zm4.619 4.929v3.751h-12.555V44.65zM133.188 42.852q-1.612 0-2.34-.605-.729-.604-.729-1.906 0-1.333.729-1.938.728-.604 2.34-.604 1.581 0 2.325.604.744.605.744 1.938 0 1.302-.744 1.906-.744.605-2.325.605zm2.635 1.798v15.5h-5.27v-15.5zM156.593 44.65l-7.44 7.936-.992.279-4.433 4.96-.031-5.394 7.037-7.781zm-11.749-6.572V60.15h-5.27V38.078zm5.115 11.222l6.975 10.85h-5.828l-4.588-7.75zM175.875 44.65l-7.44 7.936-.992.279-4.433 4.96-.031-5.394 7.037-7.781zm-11.749-6.572V60.15h-5.27V38.078zm5.115 11.222l6.975 10.85h-5.828L165.8 52.4zM184.865 60.46q-2.573 0-4.449-.961-1.875-.961-2.898-2.759-1.023-1.798-1.023-4.34t1.023-4.34q1.023-1.798 2.868-2.759 1.844-.961 4.231-.961 2.449 0 4.17.945 1.72.946 2.619 2.604.899 1.659.899 3.798 0 .558-.031 1.116t-.093.93h-12.276v-2.821h9.951l-2.511.961q0-1.86-.666-2.852-.667-.992-2.062-.992-.992 0-1.69.465-.697.465-1.054 1.457-.356.992-.356 2.542 0 1.519.403 2.465.403.945 1.147 1.364.744.418 1.798.418 1.178 0 1.875-.465.698-.465 1.039-1.302l4.216 1.395q-.434 1.333-1.504 2.248-1.069.914-2.542 1.379-1.472.465-3.084.465zM195.25 60.15v-15.5h4.712l.279 5.332-.589-.589q.31-1.674 1.1-2.79.791-1.116 1.984-1.69 1.194-.573 2.682-.573 1.612 0 2.805.62 1.194.62 1.876 1.829.682 1.209.682 3.038V60.15h-5.27v-8.928q0-1.612-.62-2.232-.62-.62-1.581-.62-.744 0-1.395.356-.651.357-1.023 1.132-.372.775-.372 2.077v8.215zM219.988 39.69v6.603l-.589 7.192h-4.309l-.589-7.192V39.69zm-2.759 15.531q1.426 0 2.216.682.791.682.791 1.922 0 1.209-.79 1.891-.791.682-2.217.682-1.364 0-2.17-.682-.806-.682-.806-1.891 0-1.24.806-1.922.806-.682 2.17-.682z" stroke-width=".031"/></g></svg>