<svg width="1011.913" height="68.445" viewBox="0 0 1011.913 68.445" xmlns="http://www.w3.org/2000/svg"><g stroke="#FFF"><path d="M31.081 56.14V14.674h32.293v8.356H41.887v8.42h17.09v7.852h-17.09v8.482h22.304v8.356zM69.97 56.14V24.727h9.55l.566 10.806-1.194-1.194q.629-3.392 2.23-5.654 1.603-2.262 4.022-3.424 2.418-1.163 5.434-1.163 3.267 0 5.686 1.257 2.419 1.256 3.8 3.707 1.383 2.45 1.383 6.157V56.14h-10.68V38.046q0-3.267-1.257-4.524-1.257-1.256-3.204-1.256-1.508 0-2.827.722-1.32.723-2.074 2.294-.754 1.57-.754 4.209V56.14zM123.876 24.098q4.963 0 8.702 1.917 3.738 1.916 5.843 5.591 2.104 3.676 2.104 8.827 0 5.152-2.104 8.827-2.105 3.676-5.843 5.592-3.739 1.916-8.702 1.916-4.837 0-8.607-1.916-3.77-1.916-5.874-5.592-2.105-3.675-2.105-8.827 0-5.151 2.105-8.827 2.104-3.675 5.874-5.591 3.77-1.917 8.607-1.917zm0 7.602q-1.822 0-3.141.88-1.32.88-2.01 2.827-.692 1.948-.692 5.026 0 3.079.691 4.995t2.01 2.827q1.32.911 3.142.911 1.885 0 3.204-.91 1.32-.912 2.01-2.828.692-1.916.692-4.995 0-3.078-.691-5.026-.691-1.947-2.01-2.827-1.32-.88-3.205-.88zM146.557 56.14V24.727h9.424l.44 6.785q1.193-3.518 3.55-5.466 2.355-1.948 5.999-1.948 1.194 0 2.042.189.848.188 1.35.503l-1.067 8.795q-.629-.251-1.602-.408-.974-.157-2.356-.157-1.885 0-3.519.817-1.633.816-2.607 2.418-.974 1.602-.974 4.053V56.14zM173.572 56.14V24.727h9.55l.314 6.094q1.508-3.33 4.24-5.026 2.734-1.697 6.315-1.697 3.518 0 6.094 1.571 2.576 1.57 3.832 4.65 1.006-2.074 2.608-3.456 1.602-1.382 3.675-2.073 2.073-.692 4.272-.692 3.142 0 5.529 1.226 2.387 1.225 3.8 3.706 1.415 2.482 1.415 6.189V56.14h-10.681V37.669q0-3.016-1.162-4.21-1.163-1.193-3.11-1.193-1.57 0-2.859.785-1.288.786-1.979 2.356-.69 1.57-.69 3.958V56.14h-10.681V37.669q0-3.016-1.194-4.21-1.194-1.193-3.079-1.193-1.445 0-2.733.754t-2.042 2.356q-.753 1.602-.753 4.178V56.14zM245.634 14.737v30.22q0 2.262 1.1 3.235 1.1.974 3.047.974 1.508 0 2.607-.345 1.1-.346 1.98-1.037l1.13 6.597q-1.57 1.13-3.958 1.759-2.388.628-4.9.628-3.582 0-6.189-1.005t-4.02-3.204q-1.415-2.2-1.477-5.843V17.69zm9.361 9.99v7.602h-25.444v-7.602zM288.545 56.768q-3.204 0-5.623-1.1-2.419-1.099-3.801-3.549-1.382-2.45-1.382-6.408V24.727h10.68v18.47q0 3.016 1.194 4.21t3.392 1.194q1.131 0 2.137-.409 1.005-.408 1.759-1.256.754-.848 1.162-2.199.408-1.35.408-3.173V24.727h10.68V56.14h-9.549l-.314-5.906q-1.508 3.33-4.21 4.932-2.7 1.602-6.533 1.602zM329.948 14.737v30.22q0 2.262 1.099 3.235 1.1.974 3.047.974 1.508 0 2.607-.345 1.1-.346 1.98-1.037l1.13 6.597q-1.57 1.13-3.958 1.759-2.387.628-4.9.628-3.581 0-6.189-1.005-2.607-1.005-4.02-3.204-1.414-2.2-1.477-5.843V17.69zm9.36 9.99v7.602h-25.444v-7.602zM364.69 24.727h11.058L364.44 56.14h-12.753l-11.31-31.413h11.247l6.47 23.937zM396.355 36.224q0-2.199-1.225-3.487-1.225-1.288-3.298-1.288t-3.55 1.037q-1.476 1.036-2.042 3.675l-9.047-2.136q.88-4.523 4.65-7.225 3.769-2.702 10.617-2.702 4.586 0 7.822 1.351 3.236 1.351 4.963 4.021 1.728 2.67 1.728 6.565v11.498q0 2.45 2.199 2.45 1.13 0 1.822-.251l-.628 6.094q-1.885.88-4.587.88-2.45 0-4.335-.786-1.885-.785-2.953-2.387-1.068-1.602-1.068-4.053v-.377l1.194-.44q0 2.702-1.602 4.524t-4.147 2.702q-2.544.88-5.308.88-3.205 0-5.592-1.006-2.387-1.005-3.675-2.921-1.288-1.917-1.288-4.744 0-3.392 2.042-5.623 2.041-2.23 6.44-3.11l11.874-2.45-.063 5.654-6.032 1.257q-1.884.377-2.795 1.1-.911.722-.911 2.167 0 1.382 1.005 2.073 1.005.691 2.387.691 1.068 0 2.042-.314.974-.314 1.728-.974.754-.66 1.194-1.665.44-1.005.44-2.387zM425.758 11.407V45.46q0 2.074.691 2.953.691.88 2.325.88.942 0 1.57-.126.629-.125 1.508-.377l-.69 6.409q-1.132.69-2.954 1.13-1.822.44-3.58.44-5.027 0-7.289-2.324-2.261-2.325-2.261-7.602V11.407zM466.156 16.308l.88 7.162q-.378-.126-.755-.157t-.754-.031q-2.764 0-4.115 1.35-1.35 1.351-1.35 3.362l-3.77-1.383q0-2.575.942-4.963.943-2.387 2.922-3.895t4.994-1.508h.472q.282 0 .534.063zM455.35 49.166q5.465 0 8.387 2.293 2.921 2.294 2.921 6.566 0 3.895-2.136 6.47-2.136 2.577-6 3.865-3.864 1.288-9.141 1.288-8.544 0-12.314-2.136-3.77-2.136-3.77-5.78 0-2.64 2.136-4.273 2.137-1.633 7.1-1.759l-.251 1.005q-3.833-.502-5.718-2.261-1.884-1.76-1.884-4.775 0-3.016 2.387-4.9 2.387-1.885 6.345-2.074l3.896 1.822h-1.006q-2.45.126-3.455.817-1.005.69-1.005 1.696 0 1.068.88 1.602.879.534 2.638.534zm-5.906 13.57q3.015 0 4.995-.408 1.979-.408 2.984-1.13 1.005-.723 1.005-1.665 0-.943-.691-1.477-.691-.534-2.513-.534h-11.246q-1.194 0-1.916.628-.723.629-.723 1.571 0 1.445 2.136 2.23 2.136.786 5.969.786zm.377-38.638q4.775 0 8.167 1.257 3.393 1.256 5.183 3.612 1.791 2.356 1.791 5.812 0 3.393-1.79 5.78-1.791 2.387-5.184 3.613-3.392 1.225-8.167 1.225-7.477 0-11.34-2.765-3.864-2.764-3.864-7.853 0-3.456 1.79-5.812 1.79-2.356 5.183-3.612 3.393-1.257 8.23-1.257zm0 6.095q-2.074 0-3.361 1.193-1.288 1.194-1.288 3.393 0 2.136 1.288 3.33 1.287 1.193 3.36 1.193 2.011 0 3.33-1.193 1.32-1.194 1.32-3.33 0-2.199-1.32-3.393-1.319-1.193-3.33-1.193zM501.527 14.737v30.22q0 2.262 1.1 3.235 1.099.974 3.047.974 1.507 0 2.607-.345 1.1-.346 1.979-1.037l1.13 6.597q-1.57 1.13-3.957 1.759-2.388.628-4.9.628-3.582 0-6.19-1.005-2.606-1.005-4.02-3.204-1.414-2.2-1.476-5.843V17.69zm9.361 9.99v7.602h-25.445v-7.602zM521.192 21.083q-3.267 0-4.744-1.225-1.476-1.226-1.476-3.864 0-2.702 1.476-3.927 1.477-1.225 4.744-1.225 3.204 0 4.712 1.225 1.508 1.225 1.508 3.927 0 2.638-1.508 3.864-1.508 1.225-4.712 1.225zm5.34 3.644V56.14h-10.68V24.727zM544.689 11.407V45.46q0 2.074.691 2.953.691.88 2.325.88.942 0 1.57-.126.629-.125 1.508-.377l-.69 6.409q-1.132.69-2.954 1.13-1.822.44-3.58.44-5.027 0-7.289-2.324-2.262-2.325-2.262-7.602V11.407zM584.395 14.737v30.22q0 2.262 1.1 3.235 1.1.974 3.047.974 1.508 0 2.607-.345 1.1-.346 1.98-1.037l1.13 6.597q-1.57 1.13-3.958 1.759-2.387.628-4.9.628-3.581 0-6.189-1.005-2.607-1.005-4.02-3.204-1.414-2.2-1.477-5.843V17.69zm9.362 9.99v7.602h-25.445v-7.602zM614.05 56.768q-5.215 0-9.016-1.947-3.801-1.948-5.874-5.592-2.074-3.644-2.074-8.796 0-5.151 2.074-8.795 2.073-3.644 5.811-5.592 3.738-1.948 8.576-1.948 4.963 0 8.45 1.917 3.487 1.916 5.309 5.277t1.822 7.696q0 1.131-.063 2.262t-.188 1.885h-24.88v-5.717h20.168l-5.09 1.947q0-3.77-1.35-5.78-1.35-2.01-4.178-2.01-2.01 0-3.424.942-1.414.943-2.136 2.953-.723 2.01-.723 5.152 0 3.078.817 4.995.817 1.916 2.325 2.764 1.507.848 3.644.848 2.387 0 3.8-.942 1.414-.943 2.105-2.639l8.545 2.827q-.88 2.702-3.047 4.555-2.168 1.853-5.152 2.796-2.984.942-6.251.942zM635.097 56.14V24.727h9.424l.44 6.785q1.193-3.518 3.549-5.466 2.356-1.948 6-1.948 1.194 0 2.042.189.848.188 1.35.503l-1.067 8.795q-.629-.251-1.603-.408-.973-.157-2.356-.157-1.884 0-3.518.817-1.633.816-2.607 2.418-.974 1.602-.974 4.053V56.14zM662.112 56.14V24.727h9.424l.44 6.785q1.193-3.518 3.55-5.466 2.355-1.948 6-1.948 1.193 0 2.041.189.848.188 1.351.503l-1.068 8.795q-.628-.251-1.602-.408-.974-.157-2.356-.157-1.885 0-3.518.817-1.634.816-2.608 2.418-.973 1.602-.973 4.053V56.14zM704.08 56.768q-5.214 0-9.015-1.947-3.801-1.948-5.875-5.592-2.073-3.644-2.073-8.796 0-5.151 2.073-8.795 2.074-3.644 5.812-5.592 3.738-1.948 8.576-1.948 4.963 0 8.45 1.917 3.487 1.916 5.309 5.277t1.822 7.696q0 1.131-.063 2.262t-.189 1.885h-24.88v-5.717h20.168l-5.089 1.947q0-3.77-1.35-5.78-1.351-2.01-4.178-2.01-2.01 0-3.424.942-1.414.943-2.137 2.953-.722 2.01-.722 5.152 0 3.078.817 4.995.816 1.916 2.324 2.764 1.508.848 3.644.848 2.388 0 3.801-.942 1.414-.943 2.105-2.639l8.544 2.827q-.88 2.702-3.047 4.555-2.167 1.853-5.152 2.796-2.984.942-6.25.942zM725.127 56.14V24.727h9.55l.565 10.806-1.194-1.194q.629-3.392 2.23-5.654 1.603-2.262 4.022-3.424 2.419-1.163 5.434-1.163 3.267 0 5.686 1.257 2.419 1.256 3.801 3.707 1.382 2.45 1.382 6.157V56.14h-10.68V38.046q0-3.267-1.257-4.524-1.256-1.256-3.204-1.256-1.508 0-2.827.722-1.32.723-2.073 2.294-.754 1.57-.754 4.209V56.14zM794.488 16.308l.88 7.162q-.378-.126-.755-.157t-.754-.031q-2.764 0-4.115 1.35-1.35 1.351-1.35 3.362l-3.77-1.383q0-2.575.942-4.963.943-2.387 2.922-3.895t4.994-1.508h.472q.282 0 .534.063zm-10.806 32.858q5.465 0 8.387 2.293 2.921 2.294 2.921 6.566 0 3.895-2.136 6.47-2.136 2.577-6 3.865-3.864 1.288-9.141 1.288-8.544 0-12.314-2.136-3.77-2.136-3.77-5.78 0-2.64 2.136-4.273 2.137-1.633 7.1-1.759l-.251 1.005q-3.833-.502-5.718-2.261-1.884-1.76-1.884-4.775 0-3.016 2.387-4.9 2.387-1.885 6.345-2.074l3.896 1.822h-1.006q-2.45.126-3.455.817-1.005.69-1.005 1.696 0 1.068.88 1.602.879.534 2.638.534zm-5.906 13.57q3.015 0 4.995-.408 1.979-.408 2.984-1.13 1.005-.723 1.005-1.665 0-.943-.691-1.477-.691-.534-2.513-.534H772.31q-1.194 0-1.916.628-.723.629-.723 1.571 0 1.445 2.136 2.23 2.136.786 5.969.786zm.377-38.638q4.775 0 8.167 1.257 3.393 1.256 5.183 3.612 1.791 2.356 1.791 5.812 0 3.393-1.79 5.78-1.791 2.387-5.184 3.613-3.392 1.225-8.167 1.225-7.477 0-11.34-2.765-3.864-2.764-3.864-7.853 0-3.456 1.79-5.812 1.79-2.356 5.183-3.612 3.393-1.257 8.23-1.257zm0 6.095q-2.074 0-3.361 1.193-1.288 1.194-1.288 3.393 0 2.136 1.288 3.33 1.287 1.193 3.36 1.193 2.011 0 3.33-1.193 1.32-1.194 1.32-3.33 0-2.199-1.32-3.393-1.319-1.193-3.33-1.193zM809.817 11.407V45.46q0 2.074.691 2.953.692.88 2.325.88.942 0 1.57-.126.629-.125 1.509-.377l-.692 6.409q-1.13.69-2.952 1.13-1.822.44-3.581.44-5.027 0-7.288-2.324-2.262-2.325-2.262-7.602V11.407zM834.76 24.098q4.963 0 8.701 1.917 3.738 1.916 5.843 5.591 2.105 3.676 2.105 8.827 0 5.152-2.105 8.827-2.105 3.676-5.843 5.592-3.738 1.916-8.701 1.916-4.838 0-8.608-1.916-3.77-1.916-5.874-5.592-2.105-3.675-2.105-8.827 0-5.151 2.105-8.827 2.105-3.675 5.874-5.591 3.77-1.917 8.608-1.917zm0 7.602q-1.822 0-3.142.88-1.32.88-2.01 2.827-.691 1.948-.691 5.026 0 3.079.69 4.995.692 1.916 2.011 2.827 1.32.911 3.142.911 1.884 0 3.204-.91 1.32-.912 2.01-2.828.691-1.916.691-4.995 0-3.078-.69-5.026-.692-1.947-2.011-2.827-1.32-.88-3.204-.88zm-16.021 26.01L846.57 23.22h4.21L822.947 57.71zM857.44 69.334V24.727h9.612l.566 11.371-1.257-1.32q.44-3.14 1.948-5.528 1.508-2.387 3.895-3.77 2.388-1.382 5.466-1.382 3.895 0 6.785 1.917 2.89 1.916 4.493 5.528 1.602 3.613 1.602 8.765 0 5.151-1.634 8.858-1.633 3.707-4.555 5.655-2.921 1.947-6.816 1.947-4.273 0-6.911-2.544-2.64-2.545-3.519-6.44l1.006-1.508v23.058zm16.46-20.42q2.765 0 4.336-2.04 1.57-2.043 1.57-6.44 0-4.399-1.539-6.44-1.54-2.042-4.304-2.042-1.759 0-3.078.974-1.32.973-2.042 2.858-.722 1.885-.722 4.65 0 2.638.66 4.554.659 1.916 1.978 2.922 1.32 1.005 3.142 1.005zM902.173 21.083q-3.267 0-4.744-1.225-1.476-1.226-1.476-3.864 0-2.702 1.476-3.927 1.477-1.225 4.744-1.225 3.204 0 4.712 1.225 1.507 1.225 1.507 3.927 0 2.638-1.507 3.864-1.508 1.225-4.712 1.225zm5.34 3.644V56.14h-10.68V24.727zM915.115 56.14V24.727h9.55l.565 10.806-1.194-1.194q.628-3.392 2.23-5.654 1.603-2.262 4.021-3.424 2.42-1.163 5.435-1.163 3.267 0 5.686 1.257 2.419 1.256 3.8 3.707 1.383 2.45 1.383 6.157V56.14h-10.68V38.046q0-3.267-1.257-4.524-1.257-1.256-3.204-1.256-1.508 0-2.827.722-1.32.723-2.074 2.294-.754 1.57-.754 4.209V56.14zM984.475 16.308l.88 7.162q-.377-.126-.754-.157t-.754-.031q-2.764 0-4.115 1.35-1.35 1.351-1.35 3.362l-3.77-1.383q0-2.575.942-4.963.942-2.387 2.922-3.895 1.979-1.508 4.994-1.508h.471q.283 0 .534.063zM973.67 49.166q5.466 0 8.388 2.293 2.921 2.294 2.921 6.566 0 3.895-2.136 6.47-2.136 2.577-6 3.865-3.864 1.288-9.141 1.288-8.545 0-12.314-2.136-3.77-2.136-3.77-5.78 0-2.64 2.136-4.273 2.136-1.633 7.1-1.759l-.252 1.005q-3.832-.502-5.717-2.261Q953 52.684 953 49.669q0-3.016 2.388-4.9 2.387-1.885 6.345-2.074l3.895 1.822h-1.005q-2.45.126-3.455.817-1.005.69-1.005 1.696 0 1.068.88 1.602.879.534 2.638.534zm-5.905 13.57q3.015 0 4.994-.408 1.98-.408 2.985-1.13 1.005-.723 1.005-1.665 0-.943-.691-1.477-.691-.534-2.513-.534h-11.246q-1.194 0-1.917.628-.722.629-.722 1.571 0 1.445 2.136 2.23 2.136.786 5.969.786zm.377-38.638q4.774 0 8.167 1.257 3.393 1.256 5.183 3.612t1.79 5.812q0 3.393-1.79 5.78-1.79 2.387-5.183 3.613-3.393 1.225-8.167 1.225-7.477 0-11.34-2.765-3.865-2.764-3.865-7.853 0-3.456 1.791-5.812 1.79-2.356 5.183-3.612 3.393-1.257 8.23-1.257zm0 6.095q-2.074 0-3.362 1.193-1.288 1.194-1.288 3.393 0 2.136 1.288 3.33 1.288 1.193 3.362 1.193 2.01 0 3.33-1.193 1.319-1.194 1.319-3.33 0-2.199-1.32-3.393-1.319-1.193-3.33-1.193z" stroke-width=".06283"/></g></svg>